<mxfile host="app.diagrams.net" modified="2023-12-28T18:20:28.664Z" agent="Mozilla/5.0 (X11; Ubuntu; Linux x86_64; rv:120.0) Gecko/20100101 Firefox/120.0" etag="n-W82uASqNRw-DExGeG8" version="21.6.5" type="github">
  <diagram name="Страница 1" id="kYLUtjouHELDo8i-F8S-">
    <mxGraphModel dx="1184" dy="691" grid="1" gridSize="10" guides="1" tooltips="1" connect="1" arrows="1" fold="1" page="1" pageScale="1" pageWidth="827" pageHeight="1169" math="0" shadow="0">
      <root>
        <mxCell id="0" />
        <mxCell id="1" parent="0" />
        <mxCell id="blg7EuB-wjPVDd9vj1YW-481" value="&lt;h1&gt;Futuro &lt;span style=&quot;font-weight: normal;&quot;&gt;(будущее)&lt;/span&gt;&lt;/h1&gt;&lt;div&gt;&lt;br&gt;&lt;/div&gt;&lt;p&gt;&lt;br&gt;&lt;/p&gt;" style="text;html=1;strokeColor=#6c8ebf;fillColor=#dae8fc;spacing=5;spacingTop=-20;whiteSpace=wrap;overflow=hidden;rounded=0;align=center;fontStyle=1" vertex="1" parent="1">
          <mxGeometry x="4" y="838" width="346" height="329" as="geometry" />
        </mxCell>
        <mxCell id="blg7EuB-wjPVDd9vj1YW-557" value="&lt;h1&gt;Simple&lt;br&gt;&lt;/h1&gt;&lt;p&gt;&lt;br&gt;&lt;/p&gt;" style="text;html=1;strokeColor=#d79b00;fillColor=#ffe6cc;spacing=5;spacingTop=-20;whiteSpace=wrap;overflow=hidden;rounded=0;align=center;fontStyle=1" vertex="1" parent="1">
          <mxGeometry x="194" y="872" width="143" height="195" as="geometry" />
        </mxCell>
        <mxCell id="blg7EuB-wjPVDd9vj1YW-102" value="&lt;h1&gt;Pasados &lt;span style=&quot;&quot;&gt;(прошлое время)&lt;/span&gt;&lt;br&gt;&lt;/h1&gt;&lt;div&gt;&lt;br&gt;&lt;/div&gt;&lt;p&gt;&lt;br&gt;&lt;/p&gt;" style="text;html=1;strokeColor=#6c8ebf;fillColor=#dae8fc;spacing=5;spacingTop=-20;whiteSpace=wrap;overflow=hidden;rounded=0;align=center;fontStyle=1" vertex="1" parent="1">
          <mxGeometry x="20" y="10" width="790" height="443" as="geometry" />
        </mxCell>
        <mxCell id="blg7EuB-wjPVDd9vj1YW-165" value="&lt;h1 style=&quot;font-size: 20px;&quot;&gt;&lt;font style=&quot;font-size: 20px;&quot;&gt;Perfecto &lt;span style=&quot;&quot;&gt;(несовершенный вид глагола)&lt;/span&gt;&lt;br&gt;&lt;/font&gt;&lt;/h1&gt;&lt;p style=&quot;font-size: 20px;&quot;&gt;&lt;font style=&quot;font-size: 20px;&quot;&gt;&lt;br&gt;&lt;/font&gt;&lt;/p&gt;" style="text;html=1;strokeColor=#82b366;fillColor=#d5e8d4;spacing=5;spacingTop=-20;whiteSpace=wrap;overflow=hidden;rounded=0;align=center;container=0;fontStyle=1" vertex="1" parent="1">
          <mxGeometry x="233" y="56" width="570" height="379" as="geometry" />
        </mxCell>
        <mxCell id="blg7EuB-wjPVDd9vj1YW-202" value="&lt;h1&gt;Compuesto&lt;span style=&quot;font-weight: normal;&quot;&gt;(составной)&lt;/span&gt;&lt;br&gt;&lt;/h1&gt;&lt;p&gt;&lt;br&gt;&lt;/p&gt;" style="text;html=1;strokeColor=#d79b00;fillColor=#ffe6cc;spacing=5;spacingTop=-20;whiteSpace=wrap;overflow=hidden;rounded=0;align=center;fontStyle=1" vertex="1" parent="1">
          <mxGeometry x="443" y="86" width="354" height="339" as="geometry" />
        </mxCell>
        <mxCell id="blg7EuB-wjPVDd9vj1YW-134" value="&lt;h1 style=&quot;font-size: 20px;&quot;&gt;&lt;font style=&quot;font-size: 20px;&quot;&gt;Imperfecto&lt;br&gt;&lt;span style=&quot;&quot;&gt;(совершенный вид&lt;/span&gt;)&lt;br&gt;&lt;/font&gt;&lt;/h1&gt;&lt;p style=&quot;font-size: 20px;&quot;&gt;&lt;font style=&quot;font-size: 20px;&quot;&gt;&lt;br&gt;&lt;/font&gt;&lt;/p&gt;" style="text;html=1;strokeColor=#82b366;fillColor=#d5e8d4;spacing=5;spacingTop=-20;whiteSpace=wrap;overflow=hidden;rounded=0;align=center;container=0;fontStyle=1" vertex="1" parent="1">
          <mxGeometry x="30" y="56" width="191" height="374" as="geometry" />
        </mxCell>
        <mxCell id="blg7EuB-wjPVDd9vj1YW-201" value="&lt;h1&gt;Simple&lt;span style=&quot;&quot;&gt;&lt;/span&gt;&lt;br&gt;&lt;span style=&quot;font-weight: normal;&quot;&gt;(простой)&lt;br&gt;&lt;/span&gt;&lt;/h1&gt;&lt;p&gt;&lt;br&gt;&lt;/p&gt;" style="text;html=1;strokeColor=#d79b00;fillColor=#ffe6cc;spacing=5;spacingTop=-20;whiteSpace=wrap;overflow=hidden;rounded=0;align=center;fontStyle=1" vertex="1" parent="1">
          <mxGeometry x="242" y="86" width="190" height="339" as="geometry" />
        </mxCell>
        <mxCell id="blg7EuB-wjPVDd9vj1YW-203" value="" style="group;fontStyle=1" vertex="1" connectable="0" parent="1">
          <mxGeometry x="40" y="111" width="170" height="269" as="geometry" />
        </mxCell>
        <mxCell id="blg7EuB-wjPVDd9vj1YW-167" value="&lt;h1&gt;Preterito Imperfecto&lt;br&gt;&lt;/h1&gt;&lt;p&gt;&lt;br&gt;&lt;/p&gt;" style="text;html=1;strokeColor=#666666;fillColor=#f5f5f5;spacing=5;spacingTop=-20;whiteSpace=wrap;overflow=hidden;rounded=0;fontColor=#333333;align=center;fontStyle=1" vertex="1" parent="blg7EuB-wjPVDd9vj1YW-203">
          <mxGeometry width="170" height="269" as="geometry" />
        </mxCell>
        <mxCell id="blg7EuB-wjPVDd9vj1YW-168" value="AR" style="shape=table;startSize=15;container=1;collapsible=0;childLayout=tableLayout;fontStyle=1" vertex="1" parent="blg7EuB-wjPVDd9vj1YW-203">
          <mxGeometry x="6.625" y="63" width="156.9285714285715" height="78" as="geometry" />
        </mxCell>
        <mxCell id="blg7EuB-wjPVDd9vj1YW-169" value="" style="shape=tableRow;horizontal=0;startSize=0;swimlaneHead=0;swimlaneBody=0;strokeColor=inherit;top=0;left=0;bottom=0;right=0;collapsible=0;dropTarget=0;fillColor=none;points=[[0,0.5],[1,0.5]];portConstraint=eastwest;fontStyle=1" vertex="1" parent="blg7EuB-wjPVDd9vj1YW-168">
          <mxGeometry y="15" width="156.9285714285715" height="20" as="geometry" />
        </mxCell>
        <mxCell id="blg7EuB-wjPVDd9vj1YW-170" value="raíz + &lt;span&gt;ABA&lt;/span&gt;" style="shape=partialRectangle;html=1;whiteSpace=wrap;connectable=0;strokeColor=inherit;overflow=hidden;fillColor=none;top=0;left=0;bottom=0;right=0;pointerEvents=1;fontStyle=1" vertex="1" parent="blg7EuB-wjPVDd9vj1YW-169">
          <mxGeometry width="69" height="20" as="geometry">
            <mxRectangle width="69" height="20" as="alternateBounds" />
          </mxGeometry>
        </mxCell>
        <mxCell id="blg7EuB-wjPVDd9vj1YW-171" value="raíz+ &lt;span&gt;ABAMOS&lt;/span&gt;" style="shape=partialRectangle;html=1;whiteSpace=wrap;connectable=0;strokeColor=inherit;overflow=hidden;fillColor=none;top=0;left=0;bottom=0;right=0;pointerEvents=1;fontStyle=1" vertex="1" parent="blg7EuB-wjPVDd9vj1YW-169">
          <mxGeometry x="69" width="88" height="20" as="geometry">
            <mxRectangle width="88" height="20" as="alternateBounds" />
          </mxGeometry>
        </mxCell>
        <mxCell id="blg7EuB-wjPVDd9vj1YW-172" value="" style="shape=tableRow;horizontal=0;startSize=0;swimlaneHead=0;swimlaneBody=0;strokeColor=inherit;top=0;left=0;bottom=0;right=0;collapsible=0;dropTarget=0;fillColor=none;points=[[0,0.5],[1,0.5]];portConstraint=eastwest;fontStyle=1" vertex="1" parent="blg7EuB-wjPVDd9vj1YW-168">
          <mxGeometry y="35" width="156.9285714285715" height="21" as="geometry" />
        </mxCell>
        <mxCell id="blg7EuB-wjPVDd9vj1YW-173" value="raíz+&lt;span&gt; ABAS&lt;/span&gt;" style="shape=partialRectangle;html=1;whiteSpace=wrap;connectable=0;strokeColor=inherit;overflow=hidden;fillColor=none;top=0;left=0;bottom=0;right=0;pointerEvents=1;fontStyle=1" vertex="1" parent="blg7EuB-wjPVDd9vj1YW-172">
          <mxGeometry width="69" height="21" as="geometry">
            <mxRectangle width="69" height="21" as="alternateBounds" />
          </mxGeometry>
        </mxCell>
        <mxCell id="blg7EuB-wjPVDd9vj1YW-174" value="raíz + &lt;span&gt;ABAIS&lt;/span&gt;" style="shape=partialRectangle;html=1;whiteSpace=wrap;connectable=0;strokeColor=inherit;overflow=hidden;fillColor=none;top=0;left=0;bottom=0;right=0;pointerEvents=1;fontStyle=1" vertex="1" parent="blg7EuB-wjPVDd9vj1YW-172">
          <mxGeometry x="69" width="88" height="21" as="geometry">
            <mxRectangle width="88" height="21" as="alternateBounds" />
          </mxGeometry>
        </mxCell>
        <mxCell id="blg7EuB-wjPVDd9vj1YW-175" value="" style="shape=tableRow;horizontal=0;startSize=0;swimlaneHead=0;swimlaneBody=0;strokeColor=inherit;top=0;left=0;bottom=0;right=0;collapsible=0;dropTarget=0;fillColor=none;points=[[0,0.5],[1,0.5]];portConstraint=eastwest;fontStyle=1" vertex="1" parent="blg7EuB-wjPVDd9vj1YW-168">
          <mxGeometry y="56" width="156.9285714285715" height="22" as="geometry" />
        </mxCell>
        <mxCell id="blg7EuB-wjPVDd9vj1YW-176" value="raíz + &lt;span&gt;ABA&lt;/span&gt;" style="shape=partialRectangle;html=1;whiteSpace=wrap;connectable=0;strokeColor=inherit;overflow=hidden;fillColor=none;top=0;left=0;bottom=0;right=0;pointerEvents=1;fontStyle=1" vertex="1" parent="blg7EuB-wjPVDd9vj1YW-175">
          <mxGeometry width="69" height="22" as="geometry">
            <mxRectangle width="69" height="22" as="alternateBounds" />
          </mxGeometry>
        </mxCell>
        <mxCell id="blg7EuB-wjPVDd9vj1YW-177" value="raíz + &lt;span&gt;ABAN&lt;/span&gt;" style="shape=partialRectangle;html=1;whiteSpace=wrap;connectable=0;strokeColor=inherit;overflow=hidden;fillColor=none;top=0;left=0;bottom=0;right=0;pointerEvents=1;fontStyle=1" vertex="1" parent="blg7EuB-wjPVDd9vj1YW-175">
          <mxGeometry x="69" width="88" height="22" as="geometry">
            <mxRectangle width="88" height="22" as="alternateBounds" />
          </mxGeometry>
        </mxCell>
        <mxCell id="blg7EuB-wjPVDd9vj1YW-178" value="ER/IR" style="shape=table;startSize=20;container=1;collapsible=0;childLayout=tableLayout;fontStyle=1" vertex="1" parent="blg7EuB-wjPVDd9vj1YW-203">
          <mxGeometry x="7.625" y="146" width="155.18181818181804" height="80" as="geometry" />
        </mxCell>
        <mxCell id="blg7EuB-wjPVDd9vj1YW-179" value="" style="shape=tableRow;horizontal=0;startSize=0;swimlaneHead=0;swimlaneBody=0;strokeColor=inherit;top=0;left=0;bottom=0;right=0;collapsible=0;dropTarget=0;fillColor=none;points=[[0,0.5],[1,0.5]];portConstraint=eastwest;fontStyle=1" vertex="1" parent="blg7EuB-wjPVDd9vj1YW-178">
          <mxGeometry y="20" width="155.18181818181804" height="20" as="geometry" />
        </mxCell>
        <mxCell id="blg7EuB-wjPVDd9vj1YW-180" value="raíz + &lt;span&gt;IA&lt;/span&gt;" style="shape=partialRectangle;html=1;whiteSpace=wrap;connectable=0;strokeColor=inherit;overflow=hidden;fillColor=none;top=0;left=0;bottom=0;right=0;pointerEvents=1;fontStyle=1" vertex="1" parent="blg7EuB-wjPVDd9vj1YW-179">
          <mxGeometry width="65" height="20" as="geometry">
            <mxRectangle width="65" height="20" as="alternateBounds" />
          </mxGeometry>
        </mxCell>
        <mxCell id="blg7EuB-wjPVDd9vj1YW-181" value="raíz + &lt;span&gt;IAMOS&lt;/span&gt;" style="shape=partialRectangle;html=1;whiteSpace=wrap;connectable=0;strokeColor=inherit;overflow=hidden;fillColor=none;top=0;left=0;bottom=0;right=0;pointerEvents=1;fontStyle=1" vertex="1" parent="blg7EuB-wjPVDd9vj1YW-179">
          <mxGeometry x="65" width="90" height="20" as="geometry">
            <mxRectangle width="90" height="20" as="alternateBounds" />
          </mxGeometry>
        </mxCell>
        <mxCell id="blg7EuB-wjPVDd9vj1YW-182" value="" style="shape=tableRow;horizontal=0;startSize=0;swimlaneHead=0;swimlaneBody=0;strokeColor=inherit;top=0;left=0;bottom=0;right=0;collapsible=0;dropTarget=0;fillColor=none;points=[[0,0.5],[1,0.5]];portConstraint=eastwest;fontStyle=1" vertex="1" parent="blg7EuB-wjPVDd9vj1YW-178">
          <mxGeometry y="40" width="155.18181818181804" height="20" as="geometry" />
        </mxCell>
        <mxCell id="blg7EuB-wjPVDd9vj1YW-183" value="raíz +&lt;span&gt; IAS&lt;/span&gt;" style="shape=partialRectangle;html=1;whiteSpace=wrap;connectable=0;strokeColor=inherit;overflow=hidden;fillColor=none;top=0;left=0;bottom=0;right=0;pointerEvents=1;fontStyle=1" vertex="1" parent="blg7EuB-wjPVDd9vj1YW-182">
          <mxGeometry width="65" height="20" as="geometry">
            <mxRectangle width="65" height="20" as="alternateBounds" />
          </mxGeometry>
        </mxCell>
        <mxCell id="blg7EuB-wjPVDd9vj1YW-184" value="raíz + &lt;span&gt;IAIS&lt;/span&gt;" style="shape=partialRectangle;html=1;whiteSpace=wrap;connectable=0;strokeColor=inherit;overflow=hidden;fillColor=none;top=0;left=0;bottom=0;right=0;pointerEvents=1;fontStyle=1" vertex="1" parent="blg7EuB-wjPVDd9vj1YW-182">
          <mxGeometry x="65" width="90" height="20" as="geometry">
            <mxRectangle width="90" height="20" as="alternateBounds" />
          </mxGeometry>
        </mxCell>
        <mxCell id="blg7EuB-wjPVDd9vj1YW-185" value="" style="shape=tableRow;horizontal=0;startSize=0;swimlaneHead=0;swimlaneBody=0;strokeColor=inherit;top=0;left=0;bottom=0;right=0;collapsible=0;dropTarget=0;fillColor=none;points=[[0,0.5],[1,0.5]];portConstraint=eastwest;fontStyle=1" vertex="1" parent="blg7EuB-wjPVDd9vj1YW-178">
          <mxGeometry y="60" width="155.18181818181804" height="20" as="geometry" />
        </mxCell>
        <mxCell id="blg7EuB-wjPVDd9vj1YW-186" value="raíz + &lt;span&gt;IA&lt;/span&gt;" style="shape=partialRectangle;html=1;whiteSpace=wrap;connectable=0;strokeColor=inherit;overflow=hidden;fillColor=none;top=0;left=0;bottom=0;right=0;pointerEvents=1;fontStyle=1" vertex="1" parent="blg7EuB-wjPVDd9vj1YW-185">
          <mxGeometry width="65" height="20" as="geometry">
            <mxRectangle width="65" height="20" as="alternateBounds" />
          </mxGeometry>
        </mxCell>
        <mxCell id="blg7EuB-wjPVDd9vj1YW-187" value="raíz + &lt;span&gt;IAN&lt;/span&gt;" style="shape=partialRectangle;html=1;whiteSpace=wrap;connectable=0;strokeColor=inherit;overflow=hidden;fillColor=none;top=0;left=0;bottom=0;right=0;pointerEvents=1;fontStyle=1" vertex="1" parent="blg7EuB-wjPVDd9vj1YW-185">
          <mxGeometry x="65" width="90" height="20" as="geometry">
            <mxRectangle width="90" height="20" as="alternateBounds" />
          </mxGeometry>
        </mxCell>
        <mxCell id="blg7EuB-wjPVDd9vj1YW-204" value="" style="group;fontStyle=1" vertex="1" connectable="0" parent="1">
          <mxGeometry x="250" y="149" width="170" height="269" as="geometry" />
        </mxCell>
        <mxCell id="blg7EuB-wjPVDd9vj1YW-205" value="&lt;h1&gt;Preterito Indefinido&lt;br&gt;&lt;/h1&gt;&lt;p&gt;&lt;br&gt;&lt;/p&gt;" style="text;html=1;strokeColor=#666666;fillColor=#f5f5f5;spacing=5;spacingTop=-20;whiteSpace=wrap;overflow=hidden;rounded=0;fontColor=#333333;align=center;fontStyle=1" vertex="1" parent="blg7EuB-wjPVDd9vj1YW-204">
          <mxGeometry width="170" height="269" as="geometry" />
        </mxCell>
        <mxCell id="blg7EuB-wjPVDd9vj1YW-206" value="AR" style="shape=table;startSize=15;container=1;collapsible=0;childLayout=tableLayout;fontStyle=1" vertex="1" parent="blg7EuB-wjPVDd9vj1YW-204">
          <mxGeometry x="6.625" y="69" width="156.9285714285715" height="80" as="geometry" />
        </mxCell>
        <mxCell id="blg7EuB-wjPVDd9vj1YW-207" value="" style="shape=tableRow;horizontal=0;startSize=0;swimlaneHead=0;swimlaneBody=0;strokeColor=inherit;top=0;left=0;bottom=0;right=0;collapsible=0;dropTarget=0;fillColor=none;points=[[0,0.5],[1,0.5]];portConstraint=eastwest;fontStyle=1" vertex="1" parent="blg7EuB-wjPVDd9vj1YW-206">
          <mxGeometry y="15" width="156.9285714285715" height="22" as="geometry" />
        </mxCell>
        <mxCell id="blg7EuB-wjPVDd9vj1YW-208" value="raíz + &lt;span&gt;E&lt;/span&gt;" style="shape=partialRectangle;html=1;whiteSpace=wrap;connectable=0;strokeColor=inherit;overflow=hidden;fillColor=none;top=0;left=0;bottom=0;right=0;pointerEvents=1;fontStyle=1" vertex="1" parent="blg7EuB-wjPVDd9vj1YW-207">
          <mxGeometry width="69" height="22" as="geometry">
            <mxRectangle width="69" height="22" as="alternateBounds" />
          </mxGeometry>
        </mxCell>
        <mxCell id="blg7EuB-wjPVDd9vj1YW-209" value="raíz + &lt;span&gt;AMOS&lt;/span&gt;" style="shape=partialRectangle;html=1;whiteSpace=wrap;connectable=0;strokeColor=inherit;overflow=hidden;fillColor=none;top=0;left=0;bottom=0;right=0;pointerEvents=1;fontStyle=1" vertex="1" parent="blg7EuB-wjPVDd9vj1YW-207">
          <mxGeometry x="69" width="88" height="22" as="geometry">
            <mxRectangle width="88" height="22" as="alternateBounds" />
          </mxGeometry>
        </mxCell>
        <mxCell id="blg7EuB-wjPVDd9vj1YW-210" value="" style="shape=tableRow;horizontal=0;startSize=0;swimlaneHead=0;swimlaneBody=0;strokeColor=inherit;top=0;left=0;bottom=0;right=0;collapsible=0;dropTarget=0;fillColor=none;points=[[0,0.5],[1,0.5]];portConstraint=eastwest;fontStyle=1" vertex="1" parent="blg7EuB-wjPVDd9vj1YW-206">
          <mxGeometry y="37" width="156.9285714285715" height="21" as="geometry" />
        </mxCell>
        <mxCell id="blg7EuB-wjPVDd9vj1YW-211" value="raíz +&lt;span&gt; ASTE&lt;/span&gt;" style="shape=partialRectangle;html=1;whiteSpace=wrap;connectable=0;strokeColor=inherit;overflow=hidden;fillColor=none;top=0;left=0;bottom=0;right=0;pointerEvents=1;fontStyle=1" vertex="1" parent="blg7EuB-wjPVDd9vj1YW-210">
          <mxGeometry width="69" height="21" as="geometry">
            <mxRectangle width="69" height="21" as="alternateBounds" />
          </mxGeometry>
        </mxCell>
        <mxCell id="blg7EuB-wjPVDd9vj1YW-212" value="raíz + &lt;span&gt;ASTEIS&lt;/span&gt;" style="shape=partialRectangle;html=1;whiteSpace=wrap;connectable=0;strokeColor=inherit;overflow=hidden;fillColor=none;top=0;left=0;bottom=0;right=0;pointerEvents=1;fontStyle=1" vertex="1" parent="blg7EuB-wjPVDd9vj1YW-210">
          <mxGeometry x="69" width="88" height="21" as="geometry">
            <mxRectangle width="88" height="21" as="alternateBounds" />
          </mxGeometry>
        </mxCell>
        <mxCell id="blg7EuB-wjPVDd9vj1YW-213" value="" style="shape=tableRow;horizontal=0;startSize=0;swimlaneHead=0;swimlaneBody=0;strokeColor=inherit;top=0;left=0;bottom=0;right=0;collapsible=0;dropTarget=0;fillColor=none;points=[[0,0.5],[1,0.5]];portConstraint=eastwest;fontStyle=1" vertex="1" parent="blg7EuB-wjPVDd9vj1YW-206">
          <mxGeometry y="58" width="156.9285714285715" height="22" as="geometry" />
        </mxCell>
        <mxCell id="blg7EuB-wjPVDd9vj1YW-214" value="raíz + &lt;span&gt;O&lt;/span&gt;" style="shape=partialRectangle;html=1;whiteSpace=wrap;connectable=0;strokeColor=inherit;overflow=hidden;fillColor=none;top=0;left=0;bottom=0;right=0;pointerEvents=1;fontStyle=1" vertex="1" parent="blg7EuB-wjPVDd9vj1YW-213">
          <mxGeometry width="69" height="22" as="geometry">
            <mxRectangle width="69" height="22" as="alternateBounds" />
          </mxGeometry>
        </mxCell>
        <mxCell id="blg7EuB-wjPVDd9vj1YW-215" value="raíz + &lt;span&gt;ARON&lt;/span&gt;" style="shape=partialRectangle;html=1;whiteSpace=wrap;connectable=0;strokeColor=inherit;overflow=hidden;fillColor=none;top=0;left=0;bottom=0;right=0;pointerEvents=1;fontStyle=1" vertex="1" parent="blg7EuB-wjPVDd9vj1YW-213">
          <mxGeometry x="69" width="88" height="22" as="geometry">
            <mxRectangle width="88" height="22" as="alternateBounds" />
          </mxGeometry>
        </mxCell>
        <mxCell id="blg7EuB-wjPVDd9vj1YW-216" value="ER/IR" style="shape=table;startSize=20;container=1;collapsible=0;childLayout=tableLayout;fontStyle=1" vertex="1" parent="blg7EuB-wjPVDd9vj1YW-204">
          <mxGeometry x="10.625" y="169" width="148.75" height="80" as="geometry" />
        </mxCell>
        <mxCell id="blg7EuB-wjPVDd9vj1YW-217" value="" style="shape=tableRow;horizontal=0;startSize=0;swimlaneHead=0;swimlaneBody=0;strokeColor=inherit;top=0;left=0;bottom=0;right=0;collapsible=0;dropTarget=0;fillColor=none;points=[[0,0.5],[1,0.5]];portConstraint=eastwest;fontStyle=1" vertex="1" parent="blg7EuB-wjPVDd9vj1YW-216">
          <mxGeometry y="20" width="148.75" height="20" as="geometry" />
        </mxCell>
        <mxCell id="blg7EuB-wjPVDd9vj1YW-218" value="raíz+ &lt;span&gt;I&lt;/span&gt;" style="shape=partialRectangle;html=1;whiteSpace=wrap;connectable=0;strokeColor=inherit;overflow=hidden;fillColor=none;top=0;left=0;bottom=0;right=0;pointerEvents=1;fontStyle=1" vertex="1" parent="blg7EuB-wjPVDd9vj1YW-217">
          <mxGeometry width="65" height="20" as="geometry">
            <mxRectangle width="65" height="20" as="alternateBounds" />
          </mxGeometry>
        </mxCell>
        <mxCell id="blg7EuB-wjPVDd9vj1YW-219" value="raíz+ &lt;span&gt;IMOS&lt;/span&gt;" style="shape=partialRectangle;html=1;whiteSpace=wrap;connectable=0;strokeColor=inherit;overflow=hidden;fillColor=none;top=0;left=0;bottom=0;right=0;pointerEvents=1;fontStyle=1" vertex="1" parent="blg7EuB-wjPVDd9vj1YW-217">
          <mxGeometry x="65" width="84" height="20" as="geometry">
            <mxRectangle width="84" height="20" as="alternateBounds" />
          </mxGeometry>
        </mxCell>
        <mxCell id="blg7EuB-wjPVDd9vj1YW-220" value="" style="shape=tableRow;horizontal=0;startSize=0;swimlaneHead=0;swimlaneBody=0;strokeColor=inherit;top=0;left=0;bottom=0;right=0;collapsible=0;dropTarget=0;fillColor=none;points=[[0,0.5],[1,0.5]];portConstraint=eastwest;fontStyle=1" vertex="1" parent="blg7EuB-wjPVDd9vj1YW-216">
          <mxGeometry y="40" width="148.75" height="20" as="geometry" />
        </mxCell>
        <mxCell id="blg7EuB-wjPVDd9vj1YW-221" value="raíz+&lt;span&gt; ISTE&lt;/span&gt;" style="shape=partialRectangle;html=1;whiteSpace=wrap;connectable=0;strokeColor=inherit;overflow=hidden;fillColor=none;top=0;left=0;bottom=0;right=0;pointerEvents=1;fontStyle=1" vertex="1" parent="blg7EuB-wjPVDd9vj1YW-220">
          <mxGeometry width="65" height="20" as="geometry">
            <mxRectangle width="65" height="20" as="alternateBounds" />
          </mxGeometry>
        </mxCell>
        <mxCell id="blg7EuB-wjPVDd9vj1YW-222" value="raíz+ &lt;span&gt;ISTEIS&lt;/span&gt;" style="shape=partialRectangle;html=1;whiteSpace=wrap;connectable=0;strokeColor=inherit;overflow=hidden;fillColor=none;top=0;left=0;bottom=0;right=0;pointerEvents=1;fontStyle=1" vertex="1" parent="blg7EuB-wjPVDd9vj1YW-220">
          <mxGeometry x="65" width="84" height="20" as="geometry">
            <mxRectangle width="84" height="20" as="alternateBounds" />
          </mxGeometry>
        </mxCell>
        <mxCell id="blg7EuB-wjPVDd9vj1YW-223" value="" style="shape=tableRow;horizontal=0;startSize=0;swimlaneHead=0;swimlaneBody=0;strokeColor=inherit;top=0;left=0;bottom=0;right=0;collapsible=0;dropTarget=0;fillColor=none;points=[[0,0.5],[1,0.5]];portConstraint=eastwest;fontStyle=1" vertex="1" parent="blg7EuB-wjPVDd9vj1YW-216">
          <mxGeometry y="60" width="148.75" height="20" as="geometry" />
        </mxCell>
        <mxCell id="blg7EuB-wjPVDd9vj1YW-224" value="raíz+ &lt;span&gt;IO&lt;/span&gt;" style="shape=partialRectangle;html=1;whiteSpace=wrap;connectable=0;strokeColor=inherit;overflow=hidden;fillColor=none;top=0;left=0;bottom=0;right=0;pointerEvents=1;fontStyle=1" vertex="1" parent="blg7EuB-wjPVDd9vj1YW-223">
          <mxGeometry width="65" height="20" as="geometry">
            <mxRectangle width="65" height="20" as="alternateBounds" />
          </mxGeometry>
        </mxCell>
        <mxCell id="blg7EuB-wjPVDd9vj1YW-225" value="raíz+ &lt;span&gt;IERON&lt;/span&gt;" style="shape=partialRectangle;html=1;whiteSpace=wrap;connectable=0;strokeColor=inherit;overflow=hidden;fillColor=none;top=0;left=0;bottom=0;right=0;pointerEvents=1;fontStyle=1" vertex="1" parent="blg7EuB-wjPVDd9vj1YW-223">
          <mxGeometry x="65" width="84" height="20" as="geometry">
            <mxRectangle width="84" height="20" as="alternateBounds" />
          </mxGeometry>
        </mxCell>
        <mxCell id="blg7EuB-wjPVDd9vj1YW-584" value="AR/ER/IR" style="shape=table;startSize=20;container=1;collapsible=0;childLayout=tableLayout;fontStyle=1;labelBackgroundColor=default;fillColor=#f5f5f5;fontColor=#333333;strokeColor=#666666;" vertex="1" parent="1">
          <mxGeometry x="204.5" y="922" width="121.5" height="80" as="geometry" />
        </mxCell>
        <mxCell id="blg7EuB-wjPVDd9vj1YW-585" value="" style="shape=tableRow;horizontal=0;startSize=0;swimlaneHead=0;swimlaneBody=0;strokeColor=inherit;top=0;left=0;bottom=0;right=0;collapsible=0;dropTarget=0;fillColor=none;points=[[0,0.5],[1,0.5]];portConstraint=eastwest;fontStyle=1" vertex="1" parent="blg7EuB-wjPVDd9vj1YW-584">
          <mxGeometry y="20" width="121.5" height="20" as="geometry" />
        </mxCell>
        <mxCell id="blg7EuB-wjPVDd9vj1YW-586" value="Inf. + &lt;span&gt;E&lt;/span&gt;" style="shape=partialRectangle;html=1;whiteSpace=wrap;connectable=0;strokeColor=inherit;overflow=hidden;fillColor=none;top=0;left=0;bottom=0;right=0;pointerEvents=1;fontStyle=1" vertex="1" parent="blg7EuB-wjPVDd9vj1YW-585">
          <mxGeometry width="52" height="20" as="geometry">
            <mxRectangle width="52" height="20" as="alternateBounds" />
          </mxGeometry>
        </mxCell>
        <mxCell id="blg7EuB-wjPVDd9vj1YW-587" value="Inf. +&lt;span&gt; EMOS&lt;/span&gt;" style="shape=partialRectangle;html=1;whiteSpace=wrap;connectable=0;strokeColor=inherit;overflow=hidden;fillColor=none;top=0;left=0;bottom=0;right=0;pointerEvents=1;fontStyle=1" vertex="1" parent="blg7EuB-wjPVDd9vj1YW-585">
          <mxGeometry x="52" width="70" height="20" as="geometry">
            <mxRectangle width="70" height="20" as="alternateBounds" />
          </mxGeometry>
        </mxCell>
        <mxCell id="blg7EuB-wjPVDd9vj1YW-588" value="" style="shape=tableRow;horizontal=0;startSize=0;swimlaneHead=0;swimlaneBody=0;strokeColor=inherit;top=0;left=0;bottom=0;right=0;collapsible=0;dropTarget=0;fillColor=none;points=[[0,0.5],[1,0.5]];portConstraint=eastwest;fontStyle=1" vertex="1" parent="blg7EuB-wjPVDd9vj1YW-584">
          <mxGeometry y="40" width="121.5" height="20" as="geometry" />
        </mxCell>
        <mxCell id="blg7EuB-wjPVDd9vj1YW-589" value="Inf. +&lt;span&gt; AS&lt;/span&gt;" style="shape=partialRectangle;html=1;whiteSpace=wrap;connectable=0;strokeColor=inherit;overflow=hidden;fillColor=none;top=0;left=0;bottom=0;right=0;pointerEvents=1;fontStyle=1" vertex="1" parent="blg7EuB-wjPVDd9vj1YW-588">
          <mxGeometry width="52" height="20" as="geometry">
            <mxRectangle width="52" height="20" as="alternateBounds" />
          </mxGeometry>
        </mxCell>
        <mxCell id="blg7EuB-wjPVDd9vj1YW-590" value="Inf. +&lt;span&gt; EIS&lt;/span&gt;" style="shape=partialRectangle;html=1;whiteSpace=wrap;connectable=0;strokeColor=inherit;overflow=hidden;fillColor=none;top=0;left=0;bottom=0;right=0;pointerEvents=1;fontStyle=1" vertex="1" parent="blg7EuB-wjPVDd9vj1YW-588">
          <mxGeometry x="52" width="70" height="20" as="geometry">
            <mxRectangle width="70" height="20" as="alternateBounds" />
          </mxGeometry>
        </mxCell>
        <mxCell id="blg7EuB-wjPVDd9vj1YW-591" value="" style="shape=tableRow;horizontal=0;startSize=0;swimlaneHead=0;swimlaneBody=0;strokeColor=inherit;top=0;left=0;bottom=0;right=0;collapsible=0;dropTarget=0;fillColor=none;points=[[0,0.5],[1,0.5]];portConstraint=eastwest;fontStyle=1" vertex="1" parent="blg7EuB-wjPVDd9vj1YW-584">
          <mxGeometry y="60" width="121.5" height="20" as="geometry" />
        </mxCell>
        <mxCell id="blg7EuB-wjPVDd9vj1YW-592" value="Inf. +&lt;span&gt; A&lt;/span&gt;" style="shape=partialRectangle;html=1;whiteSpace=wrap;connectable=0;strokeColor=inherit;overflow=hidden;fillColor=none;top=0;left=0;bottom=0;right=0;pointerEvents=1;fontStyle=1" vertex="1" parent="blg7EuB-wjPVDd9vj1YW-591">
          <mxGeometry width="52" height="20" as="geometry">
            <mxRectangle width="52" height="20" as="alternateBounds" />
          </mxGeometry>
        </mxCell>
        <mxCell id="blg7EuB-wjPVDd9vj1YW-593" value="Inf. +&lt;span&gt; AN&lt;/span&gt;" style="shape=partialRectangle;html=1;whiteSpace=wrap;connectable=0;strokeColor=inherit;overflow=hidden;fillColor=none;top=0;left=0;bottom=0;right=0;pointerEvents=1;fontStyle=1" vertex="1" parent="blg7EuB-wjPVDd9vj1YW-591">
          <mxGeometry x="52" width="70" height="20" as="geometry">
            <mxRectangle width="70" height="20" as="alternateBounds" />
          </mxGeometry>
        </mxCell>
        <mxCell id="blg7EuB-wjPVDd9vj1YW-654" value="" style="group;fontStyle=1" vertex="1" connectable="0" parent="1">
          <mxGeometry x="521" y="842" width="135.86" height="310" as="geometry" />
        </mxCell>
        <mxCell id="blg7EuB-wjPVDd9vj1YW-633" value="&lt;h1&gt;Imperativo&lt;br&gt;&lt;/h1&gt;&lt;p&gt;&lt;br&gt;&lt;/p&gt;" style="text;html=1;strokeColor=#666666;fillColor=#f5f5f5;spacing=5;spacingTop=-20;whiteSpace=wrap;overflow=hidden;rounded=0;fontColor=#333333;align=center;fontStyle=1" vertex="1" parent="blg7EuB-wjPVDd9vj1YW-654">
          <mxGeometry y="1" width="130" height="310" as="geometry" />
        </mxCell>
        <mxCell id="blg7EuB-wjPVDd9vj1YW-634" value="AR" style="shape=table;startSize=16;container=1;collapsible=0;childLayout=tableLayout;fontStyle=1" vertex="1" parent="blg7EuB-wjPVDd9vj1YW-654">
          <mxGeometry x="8.720000000000027" y="78.47000000000003" width="113.28344827586204" height="107.06" as="geometry" />
        </mxCell>
        <mxCell id="blg7EuB-wjPVDd9vj1YW-635" value="" style="shape=tableRow;horizontal=0;startSize=0;swimlaneHead=0;swimlaneBody=0;strokeColor=inherit;top=0;left=0;bottom=0;right=0;collapsible=0;dropTarget=0;fillColor=none;points=[[0,0.5],[1,0.5]];portConstraint=eastwest;fontStyle=1" vertex="1" parent="blg7EuB-wjPVDd9vj1YW-634">
          <mxGeometry y="16" width="113.28344827586204" height="31" as="geometry" />
        </mxCell>
        <mxCell id="blg7EuB-wjPVDd9vj1YW-636" value="" style="shape=partialRectangle;html=1;whiteSpace=wrap;connectable=0;strokeColor=#B20000;overflow=hidden;fillColor=#e51400;top=0;left=0;bottom=0;right=0;pointerEvents=1;fontColor=#ffffff;fontStyle=1" vertex="1" parent="blg7EuB-wjPVDd9vj1YW-635">
          <mxGeometry width="43" height="31" as="geometry">
            <mxRectangle width="43" height="31" as="alternateBounds" />
          </mxGeometry>
        </mxCell>
        <mxCell id="blg7EuB-wjPVDd9vj1YW-637" value="raíz+ &lt;span&gt;EMOS&lt;/span&gt;" style="shape=partialRectangle;html=1;whiteSpace=wrap;connectable=0;strokeColor=inherit;overflow=hidden;fillColor=none;top=0;left=0;bottom=0;right=0;pointerEvents=1;fontStyle=1" vertex="1" parent="blg7EuB-wjPVDd9vj1YW-635">
          <mxGeometry x="43" width="70" height="31" as="geometry">
            <mxRectangle width="70" height="31" as="alternateBounds" />
          </mxGeometry>
        </mxCell>
        <mxCell id="blg7EuB-wjPVDd9vj1YW-638" value="" style="shape=tableRow;horizontal=0;startSize=0;swimlaneHead=0;swimlaneBody=0;strokeColor=inherit;top=0;left=0;bottom=0;right=0;collapsible=0;dropTarget=0;fillColor=none;points=[[0,0.5],[1,0.5]];portConstraint=eastwest;fontStyle=1" vertex="1" parent="blg7EuB-wjPVDd9vj1YW-634">
          <mxGeometry y="47" width="113.28344827586204" height="29" as="geometry" />
        </mxCell>
        <mxCell id="blg7EuB-wjPVDd9vj1YW-639" value="raíz+&lt;span&gt; A&lt;/span&gt;" style="shape=partialRectangle;html=1;whiteSpace=wrap;connectable=0;strokeColor=inherit;overflow=hidden;fillColor=none;top=0;left=0;bottom=0;right=0;pointerEvents=1;fontStyle=1" vertex="1" parent="blg7EuB-wjPVDd9vj1YW-638">
          <mxGeometry width="43" height="29" as="geometry">
            <mxRectangle width="43" height="29" as="alternateBounds" />
          </mxGeometry>
        </mxCell>
        <mxCell id="blg7EuB-wjPVDd9vj1YW-640" value="raíz+ &lt;span&gt;AD&lt;/span&gt;" style="shape=partialRectangle;html=1;whiteSpace=wrap;connectable=0;strokeColor=inherit;overflow=hidden;fillColor=none;top=0;left=0;bottom=0;right=0;pointerEvents=1;fontStyle=1" vertex="1" parent="blg7EuB-wjPVDd9vj1YW-638">
          <mxGeometry x="43" width="70" height="29" as="geometry">
            <mxRectangle width="70" height="29" as="alternateBounds" />
          </mxGeometry>
        </mxCell>
        <mxCell id="blg7EuB-wjPVDd9vj1YW-641" value="" style="shape=tableRow;horizontal=0;startSize=0;swimlaneHead=0;swimlaneBody=0;strokeColor=inherit;top=0;left=0;bottom=0;right=0;collapsible=0;dropTarget=0;fillColor=none;points=[[0,0.5],[1,0.5]];portConstraint=eastwest;fontStyle=1" vertex="1" parent="blg7EuB-wjPVDd9vj1YW-634">
          <mxGeometry y="76" width="113.28344827586204" height="31" as="geometry" />
        </mxCell>
        <mxCell id="blg7EuB-wjPVDd9vj1YW-642" value="raíz+ &lt;span&gt;E&lt;/span&gt;" style="shape=partialRectangle;html=1;whiteSpace=wrap;connectable=0;strokeColor=inherit;overflow=hidden;fillColor=none;top=0;left=0;bottom=0;right=0;pointerEvents=1;fontStyle=1" vertex="1" parent="blg7EuB-wjPVDd9vj1YW-641">
          <mxGeometry width="43" height="31" as="geometry">
            <mxRectangle width="43" height="31" as="alternateBounds" />
          </mxGeometry>
        </mxCell>
        <mxCell id="blg7EuB-wjPVDd9vj1YW-643" value="raíz+ &lt;span&gt;EN&lt;/span&gt;" style="shape=partialRectangle;html=1;whiteSpace=wrap;connectable=0;strokeColor=inherit;overflow=hidden;fillColor=none;top=0;left=0;bottom=0;right=0;pointerEvents=1;fontStyle=1" vertex="1" parent="blg7EuB-wjPVDd9vj1YW-641">
          <mxGeometry x="43" width="70" height="31" as="geometry">
            <mxRectangle width="70" height="31" as="alternateBounds" />
          </mxGeometry>
        </mxCell>
        <mxCell id="blg7EuB-wjPVDd9vj1YW-644" value="ER/IR" style="shape=table;startSize=20;container=1;collapsible=0;childLayout=tableLayout;fontStyle=1" vertex="1" parent="blg7EuB-wjPVDd9vj1YW-654">
          <mxGeometry x="8.720000000000027" y="193" width="114.28" height="107.06" as="geometry" />
        </mxCell>
        <mxCell id="blg7EuB-wjPVDd9vj1YW-645" value="" style="shape=tableRow;horizontal=0;startSize=0;swimlaneHead=0;swimlaneBody=0;strokeColor=inherit;top=0;left=0;bottom=0;right=0;collapsible=0;dropTarget=0;fillColor=none;points=[[0,0.5],[1,0.5]];portConstraint=eastwest;fontStyle=1" vertex="1" parent="blg7EuB-wjPVDd9vj1YW-644">
          <mxGeometry y="20" width="114.28" height="29" as="geometry" />
        </mxCell>
        <mxCell id="blg7EuB-wjPVDd9vj1YW-646" value="" style="shape=partialRectangle;html=1;whiteSpace=wrap;connectable=0;strokeColor=#B20000;overflow=hidden;fillColor=#e51400;top=0;left=0;bottom=0;right=0;pointerEvents=1;fontColor=#ffffff;fontStyle=1" vertex="1" parent="blg7EuB-wjPVDd9vj1YW-645">
          <mxGeometry width="44" height="29" as="geometry">
            <mxRectangle width="44" height="29" as="alternateBounds" />
          </mxGeometry>
        </mxCell>
        <mxCell id="blg7EuB-wjPVDd9vj1YW-647" value="raíz+ &lt;span&gt;AMOS&lt;/span&gt;" style="shape=partialRectangle;html=1;whiteSpace=wrap;connectable=0;strokeColor=inherit;overflow=hidden;fillColor=none;top=0;left=0;bottom=0;right=0;pointerEvents=1;fontStyle=1" vertex="1" parent="blg7EuB-wjPVDd9vj1YW-645">
          <mxGeometry x="44" width="70" height="29" as="geometry">
            <mxRectangle width="70" height="29" as="alternateBounds" />
          </mxGeometry>
        </mxCell>
        <mxCell id="blg7EuB-wjPVDd9vj1YW-648" value="" style="shape=tableRow;horizontal=0;startSize=0;swimlaneHead=0;swimlaneBody=0;strokeColor=inherit;top=0;left=0;bottom=0;right=0;collapsible=0;dropTarget=0;fillColor=none;points=[[0,0.5],[1,0.5]];portConstraint=eastwest;fontStyle=1" vertex="1" parent="blg7EuB-wjPVDd9vj1YW-644">
          <mxGeometry y="49" width="114.28" height="29" as="geometry" />
        </mxCell>
        <mxCell id="blg7EuB-wjPVDd9vj1YW-649" value="raíz+&lt;span&gt; E&lt;/span&gt;" style="shape=partialRectangle;html=1;whiteSpace=wrap;connectable=0;strokeColor=inherit;overflow=hidden;fillColor=none;top=0;left=0;bottom=0;right=0;pointerEvents=1;fontStyle=1" vertex="1" parent="blg7EuB-wjPVDd9vj1YW-648">
          <mxGeometry width="44" height="29" as="geometry">
            <mxRectangle width="44" height="29" as="alternateBounds" />
          </mxGeometry>
        </mxCell>
        <mxCell id="blg7EuB-wjPVDd9vj1YW-650" value="raíz+ &lt;span&gt;ED&lt;/span&gt;" style="shape=partialRectangle;html=1;whiteSpace=wrap;connectable=0;strokeColor=inherit;overflow=hidden;fillColor=none;top=0;left=0;bottom=0;right=0;pointerEvents=1;fontStyle=1" vertex="1" parent="blg7EuB-wjPVDd9vj1YW-648">
          <mxGeometry x="44" width="70" height="29" as="geometry">
            <mxRectangle width="70" height="29" as="alternateBounds" />
          </mxGeometry>
        </mxCell>
        <mxCell id="blg7EuB-wjPVDd9vj1YW-651" value="" style="shape=tableRow;horizontal=0;startSize=0;swimlaneHead=0;swimlaneBody=0;strokeColor=inherit;top=0;left=0;bottom=0;right=0;collapsible=0;dropTarget=0;fillColor=none;points=[[0,0.5],[1,0.5]];portConstraint=eastwest;fontStyle=1" vertex="1" parent="blg7EuB-wjPVDd9vj1YW-644">
          <mxGeometry y="78" width="114.28" height="29" as="geometry" />
        </mxCell>
        <mxCell id="blg7EuB-wjPVDd9vj1YW-652" value="raíz+ &lt;span&gt;A&lt;/span&gt;" style="shape=partialRectangle;html=1;whiteSpace=wrap;connectable=0;strokeColor=inherit;overflow=hidden;fillColor=none;top=0;left=0;bottom=0;right=0;pointerEvents=1;fontStyle=1" vertex="1" parent="blg7EuB-wjPVDd9vj1YW-651">
          <mxGeometry width="44" height="29" as="geometry">
            <mxRectangle width="44" height="29" as="alternateBounds" />
          </mxGeometry>
        </mxCell>
        <mxCell id="blg7EuB-wjPVDd9vj1YW-653" value="raíz+ &lt;span&gt;AN&lt;/span&gt;" style="shape=partialRectangle;html=1;whiteSpace=wrap;connectable=0;strokeColor=inherit;overflow=hidden;fillColor=none;top=0;left=0;bottom=0;right=0;pointerEvents=1;fontStyle=1" vertex="1" parent="blg7EuB-wjPVDd9vj1YW-651">
          <mxGeometry x="44" width="70" height="29" as="geometry">
            <mxRectangle width="70" height="29" as="alternateBounds" />
          </mxGeometry>
        </mxCell>
        <mxCell id="blg7EuB-wjPVDd9vj1YW-754" value="повелительное&lt;br&gt;ное наклонение" style="text;html=1;align=center;verticalAlign=middle;resizable=0;points=[];autosize=1;strokeColor=none;fillColor=none;" vertex="1" parent="blg7EuB-wjPVDd9vj1YW-654">
          <mxGeometry x="8.720000000000013" y="29.00000000000003" width="110" height="40" as="geometry" />
        </mxCell>
        <mxCell id="blg7EuB-wjPVDd9vj1YW-701" value="" style="group;fontStyle=1" vertex="1" connectable="0" parent="1">
          <mxGeometry x="360" y="839" width="144" height="194" as="geometry" />
        </mxCell>
        <mxCell id="blg7EuB-wjPVDd9vj1YW-690" value="&lt;h1&gt;Condicional&lt;/h1&gt;&lt;p&gt;&lt;br&gt;&lt;/p&gt;" style="text;html=1;strokeColor=#666666;fillColor=#f5f5f5;spacing=5;spacingTop=-20;whiteSpace=wrap;overflow=hidden;rounded=0;fontColor=#333333;align=center;fontStyle=1" vertex="1" parent="blg7EuB-wjPVDd9vj1YW-701">
          <mxGeometry width="144" height="150" as="geometry" />
        </mxCell>
        <mxCell id="blg7EuB-wjPVDd9vj1YW-691" value="AR/ER/IR" style="shape=table;startSize=20;container=1;collapsible=0;childLayout=tableLayout;fontStyle=1" vertex="1" parent="blg7EuB-wjPVDd9vj1YW-701">
          <mxGeometry x="7.659999999999968" y="61" width="128.671875" height="84" as="geometry" />
        </mxCell>
        <mxCell id="blg7EuB-wjPVDd9vj1YW-692" value="" style="shape=tableRow;horizontal=0;startSize=0;swimlaneHead=0;swimlaneBody=0;strokeColor=inherit;top=0;left=0;bottom=0;right=0;collapsible=0;dropTarget=0;fillColor=none;points=[[0,0.5],[1,0.5]];portConstraint=eastwest;fontStyle=1" vertex="1" parent="blg7EuB-wjPVDd9vj1YW-691">
          <mxGeometry y="20" width="128.671875" height="20" as="geometry" />
        </mxCell>
        <mxCell id="blg7EuB-wjPVDd9vj1YW-693" value="Inf. + &lt;span&gt;IA&lt;/span&gt;" style="shape=partialRectangle;html=1;whiteSpace=wrap;connectable=0;strokeColor=inherit;overflow=hidden;fillColor=none;top=0;left=0;bottom=0;right=0;pointerEvents=1;fontStyle=1" vertex="1" parent="blg7EuB-wjPVDd9vj1YW-692">
          <mxGeometry width="56" height="20" as="geometry">
            <mxRectangle width="56" height="20" as="alternateBounds" />
          </mxGeometry>
        </mxCell>
        <mxCell id="blg7EuB-wjPVDd9vj1YW-694" value="Inf. +&lt;span&gt; IAMOS&lt;/span&gt;" style="shape=partialRectangle;html=1;whiteSpace=wrap;connectable=0;strokeColor=inherit;overflow=hidden;fillColor=none;top=0;left=0;bottom=0;right=0;pointerEvents=1;fontStyle=1" vertex="1" parent="blg7EuB-wjPVDd9vj1YW-692">
          <mxGeometry x="56" width="73" height="20" as="geometry">
            <mxRectangle width="73" height="20" as="alternateBounds" />
          </mxGeometry>
        </mxCell>
        <mxCell id="blg7EuB-wjPVDd9vj1YW-695" value="" style="shape=tableRow;horizontal=0;startSize=0;swimlaneHead=0;swimlaneBody=0;strokeColor=inherit;top=0;left=0;bottom=0;right=0;collapsible=0;dropTarget=0;fillColor=none;points=[[0,0.5],[1,0.5]];portConstraint=eastwest;fontStyle=1" vertex="1" parent="blg7EuB-wjPVDd9vj1YW-691">
          <mxGeometry y="40" width="128.671875" height="20" as="geometry" />
        </mxCell>
        <mxCell id="blg7EuB-wjPVDd9vj1YW-696" value="Inf. +&lt;span&gt; IAS&lt;/span&gt;" style="shape=partialRectangle;html=1;whiteSpace=wrap;connectable=0;strokeColor=inherit;overflow=hidden;fillColor=none;top=0;left=0;bottom=0;right=0;pointerEvents=1;fontStyle=1" vertex="1" parent="blg7EuB-wjPVDd9vj1YW-695">
          <mxGeometry width="56" height="20" as="geometry">
            <mxRectangle width="56" height="20" as="alternateBounds" />
          </mxGeometry>
        </mxCell>
        <mxCell id="blg7EuB-wjPVDd9vj1YW-697" value="Inf. +&lt;span&gt; IAIS&lt;/span&gt;" style="shape=partialRectangle;html=1;whiteSpace=wrap;connectable=0;strokeColor=inherit;overflow=hidden;fillColor=none;top=0;left=0;bottom=0;right=0;pointerEvents=1;fontStyle=1" vertex="1" parent="blg7EuB-wjPVDd9vj1YW-695">
          <mxGeometry x="56" width="73" height="20" as="geometry">
            <mxRectangle width="73" height="20" as="alternateBounds" />
          </mxGeometry>
        </mxCell>
        <mxCell id="blg7EuB-wjPVDd9vj1YW-698" value="" style="shape=tableRow;horizontal=0;startSize=0;swimlaneHead=0;swimlaneBody=0;strokeColor=inherit;top=0;left=0;bottom=0;right=0;collapsible=0;dropTarget=0;fillColor=none;points=[[0,0.5],[1,0.5]];portConstraint=eastwest;fontStyle=1" vertex="1" parent="blg7EuB-wjPVDd9vj1YW-691">
          <mxGeometry y="60" width="128.671875" height="24" as="geometry" />
        </mxCell>
        <mxCell id="blg7EuB-wjPVDd9vj1YW-699" value="Inf. +&lt;span&gt; IA&lt;/span&gt;" style="shape=partialRectangle;html=1;whiteSpace=wrap;connectable=0;strokeColor=inherit;overflow=hidden;fillColor=none;top=0;left=0;bottom=0;right=0;pointerEvents=1;fontStyle=1" vertex="1" parent="blg7EuB-wjPVDd9vj1YW-698">
          <mxGeometry width="56" height="24" as="geometry">
            <mxRectangle width="56" height="24" as="alternateBounds" />
          </mxGeometry>
        </mxCell>
        <mxCell id="blg7EuB-wjPVDd9vj1YW-700" value="Inf. +&lt;span&gt; IAN&lt;/span&gt;" style="shape=partialRectangle;html=1;whiteSpace=wrap;connectable=0;strokeColor=inherit;overflow=hidden;fillColor=none;top=0;left=0;bottom=0;right=0;pointerEvents=1;fontStyle=1" vertex="1" parent="blg7EuB-wjPVDd9vj1YW-698">
          <mxGeometry x="56" width="73" height="24" as="geometry">
            <mxRectangle width="73" height="24" as="alternateBounds" />
          </mxGeometry>
        </mxCell>
        <mxCell id="blg7EuB-wjPVDd9vj1YW-747" value="условное наклонение" style="text;html=1;align=center;verticalAlign=middle;resizable=0;points=[];autosize=1;strokeColor=none;fillColor=none;" vertex="1" parent="blg7EuB-wjPVDd9vj1YW-701">
          <mxGeometry y="31" width="140" height="30" as="geometry" />
        </mxCell>
        <mxCell id="blg7EuB-wjPVDd9vj1YW-715" value="" style="group;fontStyle=1" vertex="1" connectable="0" parent="1">
          <mxGeometry x="11" y="871" width="170" height="290" as="geometry" />
        </mxCell>
        <mxCell id="blg7EuB-wjPVDd9vj1YW-702" value="&lt;h1&gt;Compuesto&lt;br&gt;&lt;/h1&gt;&lt;p&gt;&lt;br&gt;&lt;/p&gt;" style="text;html=1;strokeColor=#d79b00;fillColor=#ffe6cc;spacing=5;spacingTop=-20;whiteSpace=wrap;overflow=hidden;rounded=0;align=center;fontStyle=1" vertex="1" parent="blg7EuB-wjPVDd9vj1YW-715">
          <mxGeometry width="170" height="290" as="geometry" />
        </mxCell>
        <mxCell id="blg7EuB-wjPVDd9vj1YW-703" value="" style="group;fillColor=#f5f5f5;fontColor=#333333;strokeColor=#666666;fontStyle=1" vertex="1" connectable="0" parent="blg7EuB-wjPVDd9vj1YW-715">
          <mxGeometry x="4.5" y="49" width="161" height="231" as="geometry" />
        </mxCell>
        <mxCell id="blg7EuB-wjPVDd9vj1YW-704" value="&lt;h1 style=&quot;font-size: 19px;&quot;&gt;&lt;font style=&quot;font-size: 19px;&quot;&gt;Cercano (proxima)&lt;br&gt;&lt;/font&gt;&lt;/h1&gt;&lt;h1 style=&quot;font-size: 16px;&quot;&gt;&lt;font style=&quot;font-size: 16px;&quot;&gt;&lt;span style=&quot;font-weight: normal;&quot;&gt;(compuesto con &lt;span&gt;&lt;br&gt;Ir&lt;/span&gt; presente &lt;span&gt;+ a&lt;/span&gt;&lt;span style=&quot;&quot;&gt;)&lt;br&gt;&lt;/span&gt;&lt;/span&gt;&lt;span&gt;&lt;font style=&quot;font-size: 16px;&quot;&gt;Ir &lt;span style=&quot;font-weight: normal;&quot;&gt;+&lt;/span&gt; a &lt;span style=&quot;font-weight: normal;&quot;&gt;+&lt;/span&gt; Infinitivo&lt;/font&gt;&lt;/span&gt;&lt;/font&gt;&lt;/h1&gt;" style="text;html=1;spacing=5;spacingTop=-20;whiteSpace=wrap;overflow=hidden;rounded=0;align=center;fillColor=#f5f5f5;strokeColor=#666666;fontColor=#333333;fontStyle=1" vertex="1" parent="blg7EuB-wjPVDd9vj1YW-703">
          <mxGeometry width="161" height="231" as="geometry" />
        </mxCell>
        <mxCell id="blg7EuB-wjPVDd9vj1YW-750" value="(составное)" style="text;html=1;align=center;verticalAlign=middle;resizable=0;points=[];autosize=1;strokeColor=none;fillColor=none;" vertex="1" parent="blg7EuB-wjPVDd9vj1YW-715">
          <mxGeometry x="44" y="23" width="90" height="30" as="geometry" />
        </mxCell>
        <mxCell id="blg7EuB-wjPVDd9vj1YW-705" value="Verbo IR" style="shape=table;startSize=20;container=1;collapsible=0;childLayout=tableLayout;fontStyle=1" vertex="1" parent="blg7EuB-wjPVDd9vj1YW-715">
          <mxGeometry x="18.70294117647059" y="172.00301587301587" width="132.58823529411765" height="71.20634920634922" as="geometry" />
        </mxCell>
        <mxCell id="blg7EuB-wjPVDd9vj1YW-706" value="" style="shape=tableRow;horizontal=0;startSize=0;swimlaneHead=0;swimlaneBody=0;strokeColor=inherit;top=0;left=0;bottom=0;right=0;collapsible=0;dropTarget=0;fillColor=none;points=[[0,0.5],[1,0.5]];portConstraint=eastwest;fontStyle=1" vertex="1" parent="blg7EuB-wjPVDd9vj1YW-705">
          <mxGeometry y="20" width="132.58823529411765" height="17" as="geometry" />
        </mxCell>
        <mxCell id="blg7EuB-wjPVDd9vj1YW-707" value="&lt;div&gt;&lt;span&gt;Voy&lt;/span&gt;&lt;/div&gt;" style="shape=partialRectangle;html=1;whiteSpace=wrap;connectable=0;strokeColor=inherit;overflow=hidden;fillColor=none;top=0;left=0;bottom=0;right=0;pointerEvents=1;fontStyle=1" vertex="1" parent="blg7EuB-wjPVDd9vj1YW-706">
          <mxGeometry width="57" height="17" as="geometry">
            <mxRectangle width="57" height="17" as="alternateBounds" />
          </mxGeometry>
        </mxCell>
        <mxCell id="blg7EuB-wjPVDd9vj1YW-708" value="&lt;span&gt;Vamos&lt;/span&gt;" style="shape=partialRectangle;html=1;whiteSpace=wrap;connectable=0;strokeColor=inherit;overflow=hidden;fillColor=none;top=0;left=0;bottom=0;right=0;pointerEvents=1;fontStyle=1" vertex="1" parent="blg7EuB-wjPVDd9vj1YW-706">
          <mxGeometry x="57" width="76" height="17" as="geometry">
            <mxRectangle width="76" height="17" as="alternateBounds" />
          </mxGeometry>
        </mxCell>
        <mxCell id="blg7EuB-wjPVDd9vj1YW-709" value="" style="shape=tableRow;horizontal=0;startSize=0;swimlaneHead=0;swimlaneBody=0;strokeColor=inherit;top=0;left=0;bottom=0;right=0;collapsible=0;dropTarget=0;fillColor=none;points=[[0,0.5],[1,0.5]];portConstraint=eastwest;fontStyle=1" vertex="1" parent="blg7EuB-wjPVDd9vj1YW-705">
          <mxGeometry y="37" width="132.58823529411765" height="17" as="geometry" />
        </mxCell>
        <mxCell id="blg7EuB-wjPVDd9vj1YW-710" value="&lt;div&gt;&lt;span&gt;Vas&lt;/span&gt;&lt;/div&gt;" style="shape=partialRectangle;html=1;whiteSpace=wrap;connectable=0;strokeColor=inherit;overflow=hidden;fillColor=none;top=0;left=0;bottom=0;right=0;pointerEvents=1;fontStyle=1" vertex="1" parent="blg7EuB-wjPVDd9vj1YW-709">
          <mxGeometry width="57" height="17" as="geometry">
            <mxRectangle width="57" height="17" as="alternateBounds" />
          </mxGeometry>
        </mxCell>
        <mxCell id="blg7EuB-wjPVDd9vj1YW-711" value="&lt;span&gt;Vais&lt;/span&gt;" style="shape=partialRectangle;html=1;whiteSpace=wrap;connectable=0;strokeColor=inherit;overflow=hidden;fillColor=none;top=0;left=0;bottom=0;right=0;pointerEvents=1;fontStyle=1" vertex="1" parent="blg7EuB-wjPVDd9vj1YW-709">
          <mxGeometry x="57" width="76" height="17" as="geometry">
            <mxRectangle width="76" height="17" as="alternateBounds" />
          </mxGeometry>
        </mxCell>
        <mxCell id="blg7EuB-wjPVDd9vj1YW-712" value="" style="shape=tableRow;horizontal=0;startSize=0;swimlaneHead=0;swimlaneBody=0;strokeColor=inherit;top=0;left=0;bottom=0;right=0;collapsible=0;dropTarget=0;fillColor=none;points=[[0,0.5],[1,0.5]];portConstraint=eastwest;fontStyle=1" vertex="1" parent="blg7EuB-wjPVDd9vj1YW-705">
          <mxGeometry y="54" width="132.58823529411765" height="17" as="geometry" />
        </mxCell>
        <mxCell id="blg7EuB-wjPVDd9vj1YW-713" value="&lt;span&gt;Va&lt;/span&gt;" style="shape=partialRectangle;html=1;whiteSpace=wrap;connectable=0;strokeColor=inherit;overflow=hidden;fillColor=none;top=0;left=0;bottom=0;right=0;pointerEvents=1;fontStyle=1" vertex="1" parent="blg7EuB-wjPVDd9vj1YW-712">
          <mxGeometry width="57" height="17" as="geometry">
            <mxRectangle width="57" height="17" as="alternateBounds" />
          </mxGeometry>
        </mxCell>
        <mxCell id="blg7EuB-wjPVDd9vj1YW-714" value="&lt;span&gt;Van&lt;/span&gt;" style="shape=partialRectangle;html=1;whiteSpace=wrap;connectable=0;strokeColor=inherit;overflow=hidden;fillColor=none;top=0;left=0;bottom=0;right=0;pointerEvents=1;fontStyle=1" vertex="1" parent="blg7EuB-wjPVDd9vj1YW-712">
          <mxGeometry x="57" width="76" height="17" as="geometry">
            <mxRectangle width="76" height="17" as="alternateBounds" />
          </mxGeometry>
        </mxCell>
        <mxCell id="blg7EuB-wjPVDd9vj1YW-733" value="" style="group" vertex="1" connectable="0" parent="1">
          <mxGeometry x="440" y="132" width="190" height="288" as="geometry" />
        </mxCell>
        <mxCell id="blg7EuB-wjPVDd9vj1YW-720" value="&lt;h1 style=&quot;font-size: 19px;&quot;&gt;Preterito Perfecto&lt;/h1&gt;" style="text;html=1;spacing=5;spacingTop=-20;whiteSpace=wrap;overflow=hidden;rounded=0;align=center;fillColor=default;fontStyle=1;strokeColor=default;" vertex="1" parent="blg7EuB-wjPVDd9vj1YW-733">
          <mxGeometry x="10" width="170" height="288" as="geometry" />
        </mxCell>
        <mxCell id="blg7EuB-wjPVDd9vj1YW-721" value="Haber" style="shape=table;startSize=20;container=1;collapsible=0;childLayout=tableLayout;fontStyle=1" vertex="1" parent="blg7EuB-wjPVDd9vj1YW-733">
          <mxGeometry x="26" y="135.0476190476191" width="140" height="83.31428571428572" as="geometry" />
        </mxCell>
        <mxCell id="blg7EuB-wjPVDd9vj1YW-722" value="" style="shape=tableRow;horizontal=0;startSize=0;swimlaneHead=0;swimlaneBody=0;strokeColor=inherit;top=0;left=0;bottom=0;right=0;collapsible=0;dropTarget=0;fillColor=none;points=[[0,0.5],[1,0.5]];portConstraint=eastwest;fontStyle=1" vertex="1" parent="blg7EuB-wjPVDd9vj1YW-721">
          <mxGeometry y="20" width="140" height="21" as="geometry" />
        </mxCell>
        <mxCell id="blg7EuB-wjPVDd9vj1YW-723" value="&lt;div&gt;&lt;span&gt;He&lt;/span&gt;&lt;/div&gt;" style="shape=partialRectangle;html=1;whiteSpace=wrap;connectable=0;strokeColor=inherit;overflow=hidden;fillColor=none;top=0;left=0;bottom=0;right=0;pointerEvents=1;fontStyle=1" vertex="1" parent="blg7EuB-wjPVDd9vj1YW-722">
          <mxGeometry width="60" height="21" as="geometry">
            <mxRectangle width="60" height="21" as="alternateBounds" />
          </mxGeometry>
        </mxCell>
        <mxCell id="blg7EuB-wjPVDd9vj1YW-724" value="&lt;span&gt;Hemos&lt;/span&gt;" style="shape=partialRectangle;html=1;whiteSpace=wrap;connectable=0;strokeColor=inherit;overflow=hidden;fillColor=none;top=0;left=0;bottom=0;right=0;pointerEvents=1;fontStyle=1" vertex="1" parent="blg7EuB-wjPVDd9vj1YW-722">
          <mxGeometry x="60" width="80" height="21" as="geometry">
            <mxRectangle width="80" height="21" as="alternateBounds" />
          </mxGeometry>
        </mxCell>
        <mxCell id="blg7EuB-wjPVDd9vj1YW-725" value="" style="shape=tableRow;horizontal=0;startSize=0;swimlaneHead=0;swimlaneBody=0;strokeColor=inherit;top=0;left=0;bottom=0;right=0;collapsible=0;dropTarget=0;fillColor=none;points=[[0,0.5],[1,0.5]];portConstraint=eastwest;fontStyle=1" vertex="1" parent="blg7EuB-wjPVDd9vj1YW-721">
          <mxGeometry y="41" width="140" height="22" as="geometry" />
        </mxCell>
        <mxCell id="blg7EuB-wjPVDd9vj1YW-726" value="&lt;div&gt;&lt;span&gt;Has&lt;/span&gt;&lt;/div&gt;" style="shape=partialRectangle;html=1;whiteSpace=wrap;connectable=0;strokeColor=inherit;overflow=hidden;fillColor=none;top=0;left=0;bottom=0;right=0;pointerEvents=1;fontStyle=1" vertex="1" parent="blg7EuB-wjPVDd9vj1YW-725">
          <mxGeometry width="60" height="22" as="geometry">
            <mxRectangle width="60" height="22" as="alternateBounds" />
          </mxGeometry>
        </mxCell>
        <mxCell id="blg7EuB-wjPVDd9vj1YW-727" value="&lt;span&gt;Habeis&lt;/span&gt;" style="shape=partialRectangle;html=1;whiteSpace=wrap;connectable=0;strokeColor=inherit;overflow=hidden;fillColor=none;top=0;left=0;bottom=0;right=0;pointerEvents=1;fontStyle=1" vertex="1" parent="blg7EuB-wjPVDd9vj1YW-725">
          <mxGeometry x="60" width="80" height="22" as="geometry">
            <mxRectangle width="80" height="22" as="alternateBounds" />
          </mxGeometry>
        </mxCell>
        <mxCell id="blg7EuB-wjPVDd9vj1YW-728" value="" style="shape=tableRow;horizontal=0;startSize=0;swimlaneHead=0;swimlaneBody=0;strokeColor=inherit;top=0;left=0;bottom=0;right=0;collapsible=0;dropTarget=0;fillColor=none;points=[[0,0.5],[1,0.5]];portConstraint=eastwest;fontStyle=1" vertex="1" parent="blg7EuB-wjPVDd9vj1YW-721">
          <mxGeometry y="63" width="140" height="20" as="geometry" />
        </mxCell>
        <mxCell id="blg7EuB-wjPVDd9vj1YW-729" value="&lt;span&gt;Ha&lt;/span&gt;" style="shape=partialRectangle;html=1;whiteSpace=wrap;connectable=0;strokeColor=inherit;overflow=hidden;fillColor=none;top=0;left=0;bottom=0;right=0;pointerEvents=1;fontStyle=1" vertex="1" parent="blg7EuB-wjPVDd9vj1YW-728">
          <mxGeometry width="60" height="20" as="geometry">
            <mxRectangle width="60" height="20" as="alternateBounds" />
          </mxGeometry>
        </mxCell>
        <mxCell id="blg7EuB-wjPVDd9vj1YW-730" value="&lt;span&gt;Han&lt;/span&gt;" style="shape=partialRectangle;html=1;whiteSpace=wrap;connectable=0;strokeColor=inherit;overflow=hidden;fillColor=none;top=0;left=0;bottom=0;right=0;pointerEvents=1;fontStyle=1" vertex="1" parent="blg7EuB-wjPVDd9vj1YW-728">
          <mxGeometry x="60" width="80" height="20" as="geometry">
            <mxRectangle width="80" height="20" as="alternateBounds" />
          </mxGeometry>
        </mxCell>
        <mxCell id="blg7EuB-wjPVDd9vj1YW-731" value="&lt;h1 style=&quot;font-size: 16px;&quot;&gt;&lt;font style=&quot;font-size: 16px;&quot;&gt;&lt;span style=&quot;font-weight: normal;&quot;&gt;(compuesto con &lt;b&gt;haber&lt;br&gt;&lt;/b&gt; presente)&lt;/span&gt;&lt;/font&gt;&lt;/h1&gt;&lt;div style=&quot;font-size: 16px;&quot;&gt;&lt;span&gt;&lt;font style=&quot;font-size: 16px;&quot;&gt;&lt;font style=&quot;font-size: 16px;&quot;&gt;Haber + Participio&lt;/font&gt;&lt;/font&gt;&lt;/span&gt;&lt;/div&gt;" style="text;html=1;align=center;verticalAlign=middle;resizable=0;points=[];autosize=1;strokeColor=none;fillColor=none;fontStyle=1" vertex="1" parent="blg7EuB-wjPVDd9vj1YW-733">
          <mxGeometry y="45.86666666666667" width="190" height="90" as="geometry" />
        </mxCell>
        <mxCell id="blg7EuB-wjPVDd9vj1YW-735" value="&lt;h1 style=&quot;font-size: 19px;&quot;&gt;&lt;font style=&quot;font-size: 19px;&quot;&gt;Preterito Pluscuanperfecto&lt;/font&gt;&lt;/h1&gt;" style="text;html=1;spacing=5;spacingTop=-20;whiteSpace=wrap;overflow=hidden;rounded=0;align=center;fillColor=default;fontStyle=1;strokeColor=default;" vertex="1" parent="1">
          <mxGeometry x="624" y="132" width="170" height="288" as="geometry" />
        </mxCell>
        <mxCell id="blg7EuB-wjPVDd9vj1YW-746" value="&lt;h1 style=&quot;font-size: 16px;&quot;&gt;&lt;font style=&quot;font-size: 16px;&quot;&gt;&lt;span style=&quot;font-weight: normal;&quot;&gt;(compuesto con &lt;b&gt;haber&lt;br&gt;&lt;/b&gt; preterito Imperfecto)&lt;/span&gt;&lt;/font&gt;&lt;/h1&gt;&lt;div style=&quot;font-size: 16px;&quot;&gt;&lt;span&gt;&lt;font style=&quot;font-size: 16px;&quot;&gt;&lt;font style=&quot;font-size: 16px;&quot;&gt;Haber + Participio&lt;/font&gt;&lt;/font&gt;&lt;/span&gt;&lt;/div&gt;" style="text;html=1;align=center;verticalAlign=middle;resizable=0;points=[];autosize=1;strokeColor=none;fillColor=none;fontStyle=1" vertex="1" parent="1">
          <mxGeometry x="614" y="175" width="190" height="90" as="geometry" />
        </mxCell>
        <mxCell id="blg7EuB-wjPVDd9vj1YW-276" value="Haber" style="shape=table;startSize=20;container=1;collapsible=0;childLayout=tableLayout;fontStyle=1" vertex="1" parent="1">
          <mxGeometry x="639" y="269.9971428571429" width="140" height="78.10714285714286" as="geometry" />
        </mxCell>
        <mxCell id="blg7EuB-wjPVDd9vj1YW-277" value="" style="shape=tableRow;horizontal=0;startSize=0;swimlaneHead=0;swimlaneBody=0;strokeColor=inherit;top=0;left=0;bottom=0;right=0;collapsible=0;dropTarget=0;fillColor=none;points=[[0,0.5],[1,0.5]];portConstraint=eastwest;fontStyle=1" vertex="1" parent="blg7EuB-wjPVDd9vj1YW-276">
          <mxGeometry y="20" width="140" height="19" as="geometry" />
        </mxCell>
        <mxCell id="blg7EuB-wjPVDd9vj1YW-278" value="&lt;div&gt;&lt;span&gt;Habia&lt;/span&gt;&lt;/div&gt;" style="shape=partialRectangle;html=1;whiteSpace=wrap;connectable=0;strokeColor=inherit;overflow=hidden;fillColor=none;top=0;left=0;bottom=0;right=0;pointerEvents=1;fontStyle=1" vertex="1" parent="blg7EuB-wjPVDd9vj1YW-277">
          <mxGeometry width="60" height="19" as="geometry">
            <mxRectangle width="60" height="19" as="alternateBounds" />
          </mxGeometry>
        </mxCell>
        <mxCell id="blg7EuB-wjPVDd9vj1YW-279" value="&lt;span&gt;Habiamos&lt;/span&gt;" style="shape=partialRectangle;html=1;whiteSpace=wrap;connectable=0;strokeColor=inherit;overflow=hidden;fillColor=none;top=0;left=0;bottom=0;right=0;pointerEvents=1;fontStyle=1" vertex="1" parent="blg7EuB-wjPVDd9vj1YW-277">
          <mxGeometry x="60" width="80" height="19" as="geometry">
            <mxRectangle width="80" height="19" as="alternateBounds" />
          </mxGeometry>
        </mxCell>
        <mxCell id="blg7EuB-wjPVDd9vj1YW-280" value="" style="shape=tableRow;horizontal=0;startSize=0;swimlaneHead=0;swimlaneBody=0;strokeColor=inherit;top=0;left=0;bottom=0;right=0;collapsible=0;dropTarget=0;fillColor=none;points=[[0,0.5],[1,0.5]];portConstraint=eastwest;fontStyle=1" vertex="1" parent="blg7EuB-wjPVDd9vj1YW-276">
          <mxGeometry y="39" width="140" height="20" as="geometry" />
        </mxCell>
        <mxCell id="blg7EuB-wjPVDd9vj1YW-281" value="&lt;div&gt;&lt;span&gt;Habias&lt;/span&gt;&lt;/div&gt;" style="shape=partialRectangle;html=1;whiteSpace=wrap;connectable=0;strokeColor=inherit;overflow=hidden;fillColor=none;top=0;left=0;bottom=0;right=0;pointerEvents=1;fontStyle=1" vertex="1" parent="blg7EuB-wjPVDd9vj1YW-280">
          <mxGeometry width="60" height="20" as="geometry">
            <mxRectangle width="60" height="20" as="alternateBounds" />
          </mxGeometry>
        </mxCell>
        <mxCell id="blg7EuB-wjPVDd9vj1YW-282" value="&lt;span&gt;Habiais&lt;/span&gt;" style="shape=partialRectangle;html=1;whiteSpace=wrap;connectable=0;strokeColor=inherit;overflow=hidden;fillColor=none;top=0;left=0;bottom=0;right=0;pointerEvents=1;fontStyle=1" vertex="1" parent="blg7EuB-wjPVDd9vj1YW-280">
          <mxGeometry x="60" width="80" height="20" as="geometry">
            <mxRectangle width="80" height="20" as="alternateBounds" />
          </mxGeometry>
        </mxCell>
        <mxCell id="blg7EuB-wjPVDd9vj1YW-283" value="" style="shape=tableRow;horizontal=0;startSize=0;swimlaneHead=0;swimlaneBody=0;strokeColor=inherit;top=0;left=0;bottom=0;right=0;collapsible=0;dropTarget=0;fillColor=none;points=[[0,0.5],[1,0.5]];portConstraint=eastwest;fontStyle=1" vertex="1" parent="blg7EuB-wjPVDd9vj1YW-276">
          <mxGeometry y="59" width="140" height="19" as="geometry" />
        </mxCell>
        <mxCell id="blg7EuB-wjPVDd9vj1YW-284" value="&lt;span&gt;Habia&lt;/span&gt;" style="shape=partialRectangle;html=1;whiteSpace=wrap;connectable=0;strokeColor=inherit;overflow=hidden;fillColor=none;top=0;left=0;bottom=0;right=0;pointerEvents=1;fontStyle=1" vertex="1" parent="blg7EuB-wjPVDd9vj1YW-283">
          <mxGeometry width="60" height="19" as="geometry">
            <mxRectangle width="60" height="19" as="alternateBounds" />
          </mxGeometry>
        </mxCell>
        <mxCell id="blg7EuB-wjPVDd9vj1YW-285" value="&lt;span&gt;Habian&lt;/span&gt;" style="shape=partialRectangle;html=1;whiteSpace=wrap;connectable=0;strokeColor=inherit;overflow=hidden;fillColor=none;top=0;left=0;bottom=0;right=0;pointerEvents=1;fontStyle=1" vertex="1" parent="blg7EuB-wjPVDd9vj1YW-283">
          <mxGeometry x="60" width="80" height="19" as="geometry">
            <mxRectangle width="80" height="19" as="alternateBounds" />
          </mxGeometry>
        </mxCell>
        <mxCell id="blg7EuB-wjPVDd9vj1YW-752" value="(простое)" style="text;html=1;align=center;verticalAlign=middle;resizable=0;points=[];autosize=1;strokeColor=none;fillColor=none;" vertex="1" parent="1">
          <mxGeometry x="222" y="892" width="80" height="30" as="geometry" />
        </mxCell>
        <mxCell id="blg7EuB-wjPVDd9vj1YW-609" value="" style="rounded=0;whiteSpace=wrap;html=1;fillColor=#f8cecc;strokeColor=#b85450;fontStyle=1" vertex="1" parent="1">
          <mxGeometry x="20" y="460" width="151" height="370" as="geometry" />
        </mxCell>
        <mxCell id="blg7EuB-wjPVDd9vj1YW-1" value="&lt;h1 style=&quot;font-size: 23px;&quot;&gt;Infinitivo&lt;/h1&gt;&lt;p&gt;&lt;span&gt;raíz + &lt;/span&gt;AR&lt;br&gt;&lt;span&gt;raíz + &lt;/span&gt;ER&lt;br&gt;&lt;span&gt;raíz + &lt;/span&gt;IR.&lt;/p&gt;" style="text;html=1;strokeColor=#666666;fillColor=#f5f5f5;spacing=5;spacingTop=-20;whiteSpace=wrap;overflow=hidden;rounded=0;fontColor=#333333;align=center;fontStyle=1" vertex="1" parent="1">
          <mxGeometry x="37" y="524" width="120" height="94" as="geometry" />
        </mxCell>
        <mxCell id="blg7EuB-wjPVDd9vj1YW-3" value="&lt;h1&gt;&lt;font style=&quot;font-size: 22px;&quot;&gt;Gerundio&lt;/font&gt;&lt;/h1&gt;&lt;p&gt;&lt;span&gt;raíz + &lt;/span&gt;ANDO&lt;br&gt;&lt;span&gt;raíz + &lt;/span&gt;ENDO&lt;br&gt;&lt;span&gt;raíz + &lt;/span&gt;ENDO&lt;/p&gt;" style="text;html=1;strokeColor=#666666;fillColor=#f5f5f5;spacing=5;spacingTop=-20;whiteSpace=wrap;overflow=hidden;rounded=0;fontColor=#333333;align=center;fontStyle=1;container=0;" vertex="1" parent="1">
          <mxGeometry x="37" y="622" width="120" height="94" as="geometry" />
        </mxCell>
        <mxCell id="blg7EuB-wjPVDd9vj1YW-4" value="&lt;h1&gt;&lt;font style=&quot;font-size: 21px;&quot;&gt;Participio&lt;/font&gt;&lt;/h1&gt;&lt;p&gt;&lt;span&gt;raíz + &lt;/span&gt;ADO&lt;br&gt;&lt;span&gt;raíz + &lt;/span&gt;IDO&lt;br&gt;&lt;span&gt;raíz + &lt;/span&gt;IDO&lt;/p&gt;" style="text;html=1;strokeColor=#666666;fillColor=#f5f5f5;spacing=5;spacingTop=-20;whiteSpace=wrap;overflow=hidden;rounded=0;fontColor=#333333;align=center;fontStyle=1" vertex="1" parent="1">
          <mxGeometry x="37" y="721" width="120" height="100" as="geometry" />
        </mxCell>
        <mxCell id="blg7EuB-wjPVDd9vj1YW-5" value="Безличные &#xa;формы" style="text;whiteSpace=wrap;fontSize=17;fontStyle=1;align=center;" vertex="1" parent="1">
          <mxGeometry x="40" y="467" width="117" height="40" as="geometry" />
        </mxCell>
        <mxCell id="blg7EuB-wjPVDd9vj1YW-753" value="" style="group" vertex="1" connectable="0" parent="1">
          <mxGeometry x="175" y="460" width="496" height="370" as="geometry" />
        </mxCell>
        <mxCell id="blg7EuB-wjPVDd9vj1YW-611" value="&lt;h1&gt;Presente &lt;span style=&quot;font-weight: normal;&quot;&gt;(настоящее)&lt;/span&gt;&lt;br&gt;&lt;/h1&gt;&lt;div&gt;&lt;br&gt;&lt;/div&gt;&lt;p&gt;&lt;br&gt;&lt;/p&gt;" style="text;html=1;strokeColor=#6c8ebf;fillColor=#dae8fc;spacing=5;spacingTop=-20;whiteSpace=wrap;overflow=hidden;rounded=0;align=center;fontStyle=1" vertex="1" parent="blg7EuB-wjPVDd9vj1YW-753">
          <mxGeometry width="496" height="370" as="geometry" />
        </mxCell>
        <mxCell id="blg7EuB-wjPVDd9vj1YW-688" value="" style="group;fontStyle=1" vertex="1" connectable="0" parent="blg7EuB-wjPVDd9vj1YW-753">
          <mxGeometry x="346" y="36" width="140" height="310" as="geometry" />
        </mxCell>
        <mxCell id="blg7EuB-wjPVDd9vj1YW-667" value="&lt;h1&gt;Subjuntivo&lt;br&gt;&lt;/h1&gt;&lt;p&gt;&lt;br&gt;&lt;/p&gt;" style="text;html=1;strokeColor=#666666;fillColor=#f5f5f5;spacing=5;spacingTop=-20;whiteSpace=wrap;overflow=hidden;rounded=0;fontColor=#333333;align=center;fontStyle=1" vertex="1" parent="blg7EuB-wjPVDd9vj1YW-688">
          <mxGeometry width="140" height="310" as="geometry" />
        </mxCell>
        <mxCell id="blg7EuB-wjPVDd9vj1YW-668" value="ER/IR" style="shape=table;startSize=20;container=1;collapsible=0;childLayout=tableLayout;fontStyle=1" vertex="1" parent="blg7EuB-wjPVDd9vj1YW-688">
          <mxGeometry x="6.95" y="149" width="123.64" height="80" as="geometry" />
        </mxCell>
        <mxCell id="blg7EuB-wjPVDd9vj1YW-669" value="" style="shape=tableRow;horizontal=0;startSize=0;swimlaneHead=0;swimlaneBody=0;strokeColor=inherit;top=0;left=0;bottom=0;right=0;collapsible=0;dropTarget=0;fillColor=none;points=[[0,0.5],[1,0.5]];portConstraint=eastwest;fontStyle=1" vertex="1" parent="blg7EuB-wjPVDd9vj1YW-668">
          <mxGeometry y="20" width="123.64" height="20" as="geometry" />
        </mxCell>
        <mxCell id="blg7EuB-wjPVDd9vj1YW-670" value="raíz+&lt;span&gt; A&lt;/span&gt;" style="shape=partialRectangle;html=1;whiteSpace=wrap;connectable=0;strokeColor=inherit;overflow=hidden;fillColor=none;top=0;left=0;bottom=0;right=0;pointerEvents=1;fontStyle=1" vertex="1" parent="blg7EuB-wjPVDd9vj1YW-669">
          <mxGeometry width="53" height="20" as="geometry">
            <mxRectangle width="53" height="20" as="alternateBounds" />
          </mxGeometry>
        </mxCell>
        <mxCell id="blg7EuB-wjPVDd9vj1YW-671" value="raíz+ &lt;span&gt;AMOS&lt;/span&gt;" style="shape=partialRectangle;html=1;whiteSpace=wrap;connectable=0;strokeColor=inherit;overflow=hidden;fillColor=none;top=0;left=0;bottom=0;right=0;pointerEvents=1;fontStyle=1" vertex="1" parent="blg7EuB-wjPVDd9vj1YW-669">
          <mxGeometry x="53" width="71" height="20" as="geometry">
            <mxRectangle width="71" height="20" as="alternateBounds" />
          </mxGeometry>
        </mxCell>
        <mxCell id="blg7EuB-wjPVDd9vj1YW-672" value="" style="shape=tableRow;horizontal=0;startSize=0;swimlaneHead=0;swimlaneBody=0;strokeColor=inherit;top=0;left=0;bottom=0;right=0;collapsible=0;dropTarget=0;fillColor=none;points=[[0,0.5],[1,0.5]];portConstraint=eastwest;fontStyle=1" vertex="1" parent="blg7EuB-wjPVDd9vj1YW-668">
          <mxGeometry y="40" width="123.64" height="20" as="geometry" />
        </mxCell>
        <mxCell id="blg7EuB-wjPVDd9vj1YW-673" value="raíz+&lt;span&gt; AS&lt;br&gt;&lt;/span&gt;" style="shape=partialRectangle;html=1;whiteSpace=wrap;connectable=0;strokeColor=inherit;overflow=hidden;fillColor=none;top=0;left=0;bottom=0;right=0;pointerEvents=1;fontStyle=1" vertex="1" parent="blg7EuB-wjPVDd9vj1YW-672">
          <mxGeometry width="53" height="20" as="geometry">
            <mxRectangle width="53" height="20" as="alternateBounds" />
          </mxGeometry>
        </mxCell>
        <mxCell id="blg7EuB-wjPVDd9vj1YW-674" value="raíz+ &lt;span&gt;AIS&lt;/span&gt;" style="shape=partialRectangle;html=1;whiteSpace=wrap;connectable=0;strokeColor=inherit;overflow=hidden;fillColor=none;top=0;left=0;bottom=0;right=0;pointerEvents=1;fontStyle=1" vertex="1" parent="blg7EuB-wjPVDd9vj1YW-672">
          <mxGeometry x="53" width="71" height="20" as="geometry">
            <mxRectangle width="71" height="20" as="alternateBounds" />
          </mxGeometry>
        </mxCell>
        <mxCell id="blg7EuB-wjPVDd9vj1YW-675" value="" style="shape=tableRow;horizontal=0;startSize=0;swimlaneHead=0;swimlaneBody=0;strokeColor=inherit;top=0;left=0;bottom=0;right=0;collapsible=0;dropTarget=0;fillColor=none;points=[[0,0.5],[1,0.5]];portConstraint=eastwest;fontStyle=1" vertex="1" parent="blg7EuB-wjPVDd9vj1YW-668">
          <mxGeometry y="60" width="123.64" height="20" as="geometry" />
        </mxCell>
        <mxCell id="blg7EuB-wjPVDd9vj1YW-676" value="raíz+ &lt;span&gt;A&lt;/span&gt;" style="shape=partialRectangle;html=1;whiteSpace=wrap;connectable=0;strokeColor=inherit;overflow=hidden;fillColor=none;top=0;left=0;bottom=0;right=0;pointerEvents=1;fontStyle=1" vertex="1" parent="blg7EuB-wjPVDd9vj1YW-675">
          <mxGeometry width="53" height="20" as="geometry">
            <mxRectangle width="53" height="20" as="alternateBounds" />
          </mxGeometry>
        </mxCell>
        <mxCell id="blg7EuB-wjPVDd9vj1YW-677" value="raíz+ &lt;span&gt;AN&lt;/span&gt;" style="shape=partialRectangle;html=1;whiteSpace=wrap;connectable=0;strokeColor=inherit;overflow=hidden;fillColor=none;top=0;left=0;bottom=0;right=0;pointerEvents=1;fontStyle=1" vertex="1" parent="blg7EuB-wjPVDd9vj1YW-675">
          <mxGeometry x="53" width="71" height="20" as="geometry">
            <mxRectangle width="71" height="20" as="alternateBounds" />
          </mxGeometry>
        </mxCell>
        <mxCell id="blg7EuB-wjPVDd9vj1YW-678" value="AR" style="shape=table;startSize=16;container=1;collapsible=0;childLayout=tableLayout;fontStyle=1" vertex="1" parent="blg7EuB-wjPVDd9vj1YW-688">
          <mxGeometry x="6.9500000000000135" y="64" width="121.234698275862" height="78.06" as="geometry" />
        </mxCell>
        <mxCell id="blg7EuB-wjPVDd9vj1YW-679" value="" style="shape=tableRow;horizontal=0;startSize=0;swimlaneHead=0;swimlaneBody=0;strokeColor=inherit;top=0;left=0;bottom=0;right=0;collapsible=0;dropTarget=0;fillColor=none;points=[[0,0.5],[1,0.5]];portConstraint=eastwest;fontStyle=1" vertex="1" parent="blg7EuB-wjPVDd9vj1YW-678">
          <mxGeometry y="16" width="121.234698275862" height="21" as="geometry" />
        </mxCell>
        <mxCell id="blg7EuB-wjPVDd9vj1YW-680" value="raíz+&lt;span&gt; E&lt;br&gt;&lt;/span&gt;" style="shape=partialRectangle;html=1;whiteSpace=wrap;connectable=0;strokeColor=inherit;overflow=hidden;fillColor=none;top=0;left=0;bottom=0;right=0;pointerEvents=1;fontStyle=1" vertex="1" parent="blg7EuB-wjPVDd9vj1YW-679">
          <mxGeometry width="52" height="21" as="geometry">
            <mxRectangle width="52" height="21" as="alternateBounds" />
          </mxGeometry>
        </mxCell>
        <mxCell id="blg7EuB-wjPVDd9vj1YW-681" value="raíz+ &lt;span&gt;EMOS&lt;/span&gt;" style="shape=partialRectangle;html=1;whiteSpace=wrap;connectable=0;strokeColor=inherit;overflow=hidden;fillColor=none;top=0;left=0;bottom=0;right=0;pointerEvents=1;fontStyle=1" vertex="1" parent="blg7EuB-wjPVDd9vj1YW-679">
          <mxGeometry x="52" width="69" height="21" as="geometry">
            <mxRectangle width="69" height="21" as="alternateBounds" />
          </mxGeometry>
        </mxCell>
        <mxCell id="blg7EuB-wjPVDd9vj1YW-682" value="" style="shape=tableRow;horizontal=0;startSize=0;swimlaneHead=0;swimlaneBody=0;strokeColor=inherit;top=0;left=0;bottom=0;right=0;collapsible=0;dropTarget=0;fillColor=none;points=[[0,0.5],[1,0.5]];portConstraint=eastwest;fontStyle=1" vertex="1" parent="blg7EuB-wjPVDd9vj1YW-678">
          <mxGeometry y="37" width="121.234698275862" height="20" as="geometry" />
        </mxCell>
        <mxCell id="blg7EuB-wjPVDd9vj1YW-683" value="raíz+&lt;span&gt; ES&lt;br&gt;&lt;/span&gt;" style="shape=partialRectangle;html=1;whiteSpace=wrap;connectable=0;strokeColor=inherit;overflow=hidden;fillColor=none;top=0;left=0;bottom=0;right=0;pointerEvents=1;fontStyle=1" vertex="1" parent="blg7EuB-wjPVDd9vj1YW-682">
          <mxGeometry width="52" height="20" as="geometry">
            <mxRectangle width="52" height="20" as="alternateBounds" />
          </mxGeometry>
        </mxCell>
        <mxCell id="blg7EuB-wjPVDd9vj1YW-684" value="raíz+ &lt;span&gt;EIS&lt;/span&gt;" style="shape=partialRectangle;html=1;whiteSpace=wrap;connectable=0;strokeColor=inherit;overflow=hidden;fillColor=none;top=0;left=0;bottom=0;right=0;pointerEvents=1;fontStyle=1" vertex="1" parent="blg7EuB-wjPVDd9vj1YW-682">
          <mxGeometry x="52" width="69" height="20" as="geometry">
            <mxRectangle width="69" height="20" as="alternateBounds" />
          </mxGeometry>
        </mxCell>
        <mxCell id="blg7EuB-wjPVDd9vj1YW-685" value="" style="shape=tableRow;horizontal=0;startSize=0;swimlaneHead=0;swimlaneBody=0;strokeColor=inherit;top=0;left=0;bottom=0;right=0;collapsible=0;dropTarget=0;fillColor=none;points=[[0,0.5],[1,0.5]];portConstraint=eastwest;fontStyle=1" vertex="1" parent="blg7EuB-wjPVDd9vj1YW-678">
          <mxGeometry y="57" width="121.234698275862" height="21" as="geometry" />
        </mxCell>
        <mxCell id="blg7EuB-wjPVDd9vj1YW-686" value="raíz+ &lt;span&gt;E&lt;/span&gt;" style="shape=partialRectangle;html=1;whiteSpace=wrap;connectable=0;strokeColor=inherit;overflow=hidden;fillColor=none;top=0;left=0;bottom=0;right=0;pointerEvents=1;fontStyle=1" vertex="1" parent="blg7EuB-wjPVDd9vj1YW-685">
          <mxGeometry width="52" height="21" as="geometry">
            <mxRectangle width="52" height="21" as="alternateBounds" />
          </mxGeometry>
        </mxCell>
        <mxCell id="blg7EuB-wjPVDd9vj1YW-687" value="raíz+ &lt;span&gt;EN&lt;/span&gt;" style="shape=partialRectangle;html=1;whiteSpace=wrap;connectable=0;strokeColor=inherit;overflow=hidden;fillColor=none;top=0;left=0;bottom=0;right=0;pointerEvents=1;fontStyle=1" vertex="1" parent="blg7EuB-wjPVDd9vj1YW-685">
          <mxGeometry x="52" width="69" height="21" as="geometry">
            <mxRectangle width="69" height="21" as="alternateBounds" />
          </mxGeometry>
        </mxCell>
        <mxCell id="blg7EuB-wjPVDd9vj1YW-749" value="сослагательное&lt;br&gt; наклонение" style="text;html=1;align=center;verticalAlign=middle;resizable=0;points=[];autosize=1;strokeColor=none;fillColor=none;" vertex="1" parent="blg7EuB-wjPVDd9vj1YW-688">
          <mxGeometry x="11" y="28" width="110" height="40" as="geometry" />
        </mxCell>
        <mxCell id="blg7EuB-wjPVDd9vj1YW-66" value="" style="group;fontStyle=1" vertex="1" connectable="0" parent="blg7EuB-wjPVDd9vj1YW-753">
          <mxGeometry x="178" y="35" width="160" height="320" as="geometry" />
        </mxCell>
        <mxCell id="blg7EuB-wjPVDd9vj1YW-7" value="&lt;h1&gt;&lt;font color=&quot;#ff0000&quot;&gt;Indicativo&lt;br&gt;&lt;/font&gt;&lt;/h1&gt;&lt;p&gt;&lt;font color=&quot;#ff0000&quot;&gt;&lt;br&gt;&lt;/font&gt;&lt;/p&gt;" style="text;html=1;strokeColor=#666666;fillColor=#f5f5f5;spacing=5;spacingTop=-20;whiteSpace=wrap;overflow=hidden;rounded=0;fontColor=#333333;align=center;fontStyle=1" vertex="1" parent="blg7EuB-wjPVDd9vj1YW-66">
          <mxGeometry width="160" height="320" as="geometry" />
        </mxCell>
        <mxCell id="blg7EuB-wjPVDd9vj1YW-35" value="AR" style="shape=table;startSize=20;container=1;collapsible=0;childLayout=tableLayout;fontStyle=1" vertex="1" parent="blg7EuB-wjPVDd9vj1YW-66">
          <mxGeometry x="11" y="40" width="140" height="80" as="geometry" />
        </mxCell>
        <mxCell id="blg7EuB-wjPVDd9vj1YW-36" value="" style="shape=tableRow;horizontal=0;startSize=0;swimlaneHead=0;swimlaneBody=0;strokeColor=inherit;top=0;left=0;bottom=0;right=0;collapsible=0;dropTarget=0;fillColor=none;points=[[0,0.5],[1,0.5]];portConstraint=eastwest;fontStyle=1" vertex="1" parent="blg7EuB-wjPVDd9vj1YW-35">
          <mxGeometry y="20" width="140" height="20" as="geometry" />
        </mxCell>
        <mxCell id="blg7EuB-wjPVDd9vj1YW-37" value="raíz+ &lt;span&gt;O&lt;/span&gt;" style="shape=partialRectangle;html=1;whiteSpace=wrap;connectable=0;strokeColor=inherit;overflow=hidden;fillColor=none;top=0;left=0;bottom=0;right=0;pointerEvents=1;fontStyle=1" vertex="1" parent="blg7EuB-wjPVDd9vj1YW-36">
          <mxGeometry width="60" height="20" as="geometry">
            <mxRectangle width="60" height="20" as="alternateBounds" />
          </mxGeometry>
        </mxCell>
        <mxCell id="blg7EuB-wjPVDd9vj1YW-38" value="raíz+ &lt;span&gt;AMOS&lt;/span&gt;" style="shape=partialRectangle;html=1;whiteSpace=wrap;connectable=0;strokeColor=inherit;overflow=hidden;fillColor=none;top=0;left=0;bottom=0;right=0;pointerEvents=1;fontStyle=1" vertex="1" parent="blg7EuB-wjPVDd9vj1YW-36">
          <mxGeometry x="60" width="80" height="20" as="geometry">
            <mxRectangle width="80" height="20" as="alternateBounds" />
          </mxGeometry>
        </mxCell>
        <mxCell id="blg7EuB-wjPVDd9vj1YW-39" value="" style="shape=tableRow;horizontal=0;startSize=0;swimlaneHead=0;swimlaneBody=0;strokeColor=inherit;top=0;left=0;bottom=0;right=0;collapsible=0;dropTarget=0;fillColor=none;points=[[0,0.5],[1,0.5]];portConstraint=eastwest;fontStyle=1" vertex="1" parent="blg7EuB-wjPVDd9vj1YW-35">
          <mxGeometry y="40" width="140" height="20" as="geometry" />
        </mxCell>
        <mxCell id="blg7EuB-wjPVDd9vj1YW-40" value="raíz+&lt;span&gt; AS&lt;/span&gt;" style="shape=partialRectangle;html=1;whiteSpace=wrap;connectable=0;strokeColor=inherit;overflow=hidden;fillColor=none;top=0;left=0;bottom=0;right=0;pointerEvents=1;fontStyle=1" vertex="1" parent="blg7EuB-wjPVDd9vj1YW-39">
          <mxGeometry width="60" height="20" as="geometry">
            <mxRectangle width="60" height="20" as="alternateBounds" />
          </mxGeometry>
        </mxCell>
        <mxCell id="blg7EuB-wjPVDd9vj1YW-41" value="raíz+ &lt;span&gt;AIS&lt;/span&gt;" style="shape=partialRectangle;html=1;whiteSpace=wrap;connectable=0;strokeColor=inherit;overflow=hidden;fillColor=none;top=0;left=0;bottom=0;right=0;pointerEvents=1;fontStyle=1" vertex="1" parent="blg7EuB-wjPVDd9vj1YW-39">
          <mxGeometry x="60" width="80" height="20" as="geometry">
            <mxRectangle width="80" height="20" as="alternateBounds" />
          </mxGeometry>
        </mxCell>
        <mxCell id="blg7EuB-wjPVDd9vj1YW-42" value="" style="shape=tableRow;horizontal=0;startSize=0;swimlaneHead=0;swimlaneBody=0;strokeColor=inherit;top=0;left=0;bottom=0;right=0;collapsible=0;dropTarget=0;fillColor=none;points=[[0,0.5],[1,0.5]];portConstraint=eastwest;fontStyle=1" vertex="1" parent="blg7EuB-wjPVDd9vj1YW-35">
          <mxGeometry y="60" width="140" height="20" as="geometry" />
        </mxCell>
        <mxCell id="blg7EuB-wjPVDd9vj1YW-43" value="raíz+ &lt;span&gt;A&lt;/span&gt;" style="shape=partialRectangle;html=1;whiteSpace=wrap;connectable=0;strokeColor=inherit;overflow=hidden;fillColor=none;top=0;left=0;bottom=0;right=0;pointerEvents=1;fontStyle=1" vertex="1" parent="blg7EuB-wjPVDd9vj1YW-42">
          <mxGeometry width="60" height="20" as="geometry">
            <mxRectangle width="60" height="20" as="alternateBounds" />
          </mxGeometry>
        </mxCell>
        <mxCell id="blg7EuB-wjPVDd9vj1YW-44" value="raíz+ &lt;span&gt;AN&lt;/span&gt;" style="shape=partialRectangle;html=1;whiteSpace=wrap;connectable=0;strokeColor=inherit;overflow=hidden;fillColor=none;top=0;left=0;bottom=0;right=0;pointerEvents=1;fontStyle=1" vertex="1" parent="blg7EuB-wjPVDd9vj1YW-42">
          <mxGeometry x="60" width="80" height="20" as="geometry">
            <mxRectangle width="80" height="20" as="alternateBounds" />
          </mxGeometry>
        </mxCell>
        <mxCell id="blg7EuB-wjPVDd9vj1YW-46" value="ER" style="shape=table;startSize=20;container=1;collapsible=0;childLayout=tableLayout;fontStyle=1" vertex="1" parent="blg7EuB-wjPVDd9vj1YW-66">
          <mxGeometry x="11" y="134" width="140" height="80" as="geometry" />
        </mxCell>
        <mxCell id="blg7EuB-wjPVDd9vj1YW-47" value="" style="shape=tableRow;horizontal=0;startSize=0;swimlaneHead=0;swimlaneBody=0;strokeColor=inherit;top=0;left=0;bottom=0;right=0;collapsible=0;dropTarget=0;fillColor=none;points=[[0,0.5],[1,0.5]];portConstraint=eastwest;fontStyle=1" vertex="1" parent="blg7EuB-wjPVDd9vj1YW-46">
          <mxGeometry y="20" width="140" height="20" as="geometry" />
        </mxCell>
        <mxCell id="blg7EuB-wjPVDd9vj1YW-48" value="raíz+ &lt;span&gt;O&lt;/span&gt;" style="shape=partialRectangle;html=1;whiteSpace=wrap;connectable=0;strokeColor=inherit;overflow=hidden;fillColor=none;top=0;left=0;bottom=0;right=0;pointerEvents=1;fontStyle=1" vertex="1" parent="blg7EuB-wjPVDd9vj1YW-47">
          <mxGeometry width="60" height="20" as="geometry">
            <mxRectangle width="60" height="20" as="alternateBounds" />
          </mxGeometry>
        </mxCell>
        <mxCell id="blg7EuB-wjPVDd9vj1YW-49" value="raíz+ &lt;span&gt;EMOS&lt;/span&gt;" style="shape=partialRectangle;html=1;whiteSpace=wrap;connectable=0;strokeColor=inherit;overflow=hidden;fillColor=none;top=0;left=0;bottom=0;right=0;pointerEvents=1;fontStyle=1" vertex="1" parent="blg7EuB-wjPVDd9vj1YW-47">
          <mxGeometry x="60" width="80" height="20" as="geometry">
            <mxRectangle width="80" height="20" as="alternateBounds" />
          </mxGeometry>
        </mxCell>
        <mxCell id="blg7EuB-wjPVDd9vj1YW-50" value="" style="shape=tableRow;horizontal=0;startSize=0;swimlaneHead=0;swimlaneBody=0;strokeColor=inherit;top=0;left=0;bottom=0;right=0;collapsible=0;dropTarget=0;fillColor=none;points=[[0,0.5],[1,0.5]];portConstraint=eastwest;fontStyle=1" vertex="1" parent="blg7EuB-wjPVDd9vj1YW-46">
          <mxGeometry y="40" width="140" height="20" as="geometry" />
        </mxCell>
        <mxCell id="blg7EuB-wjPVDd9vj1YW-51" value="raíz+&lt;span&gt; ES&lt;/span&gt;" style="shape=partialRectangle;html=1;whiteSpace=wrap;connectable=0;strokeColor=inherit;overflow=hidden;fillColor=none;top=0;left=0;bottom=0;right=0;pointerEvents=1;fontStyle=1" vertex="1" parent="blg7EuB-wjPVDd9vj1YW-50">
          <mxGeometry width="60" height="20" as="geometry">
            <mxRectangle width="60" height="20" as="alternateBounds" />
          </mxGeometry>
        </mxCell>
        <mxCell id="blg7EuB-wjPVDd9vj1YW-52" value="raíz+ &lt;span&gt;EIS&lt;/span&gt;" style="shape=partialRectangle;html=1;whiteSpace=wrap;connectable=0;strokeColor=inherit;overflow=hidden;fillColor=none;top=0;left=0;bottom=0;right=0;pointerEvents=1;fontStyle=1" vertex="1" parent="blg7EuB-wjPVDd9vj1YW-50">
          <mxGeometry x="60" width="80" height="20" as="geometry">
            <mxRectangle width="80" height="20" as="alternateBounds" />
          </mxGeometry>
        </mxCell>
        <mxCell id="blg7EuB-wjPVDd9vj1YW-53" value="" style="shape=tableRow;horizontal=0;startSize=0;swimlaneHead=0;swimlaneBody=0;strokeColor=inherit;top=0;left=0;bottom=0;right=0;collapsible=0;dropTarget=0;fillColor=none;points=[[0,0.5],[1,0.5]];portConstraint=eastwest;fontStyle=1" vertex="1" parent="blg7EuB-wjPVDd9vj1YW-46">
          <mxGeometry y="60" width="140" height="20" as="geometry" />
        </mxCell>
        <mxCell id="blg7EuB-wjPVDd9vj1YW-54" value="raíz+ &lt;span&gt;E&lt;/span&gt;" style="shape=partialRectangle;html=1;whiteSpace=wrap;connectable=0;strokeColor=inherit;overflow=hidden;fillColor=none;top=0;left=0;bottom=0;right=0;pointerEvents=1;fontStyle=1" vertex="1" parent="blg7EuB-wjPVDd9vj1YW-53">
          <mxGeometry width="60" height="20" as="geometry">
            <mxRectangle width="60" height="20" as="alternateBounds" />
          </mxGeometry>
        </mxCell>
        <mxCell id="blg7EuB-wjPVDd9vj1YW-55" value="raíz+ &lt;span&gt;EN&lt;/span&gt;" style="shape=partialRectangle;html=1;whiteSpace=wrap;connectable=0;strokeColor=inherit;overflow=hidden;fillColor=none;top=0;left=0;bottom=0;right=0;pointerEvents=1;fontStyle=1" vertex="1" parent="blg7EuB-wjPVDd9vj1YW-53">
          <mxGeometry x="60" width="80" height="20" as="geometry">
            <mxRectangle width="80" height="20" as="alternateBounds" />
          </mxGeometry>
        </mxCell>
        <mxCell id="blg7EuB-wjPVDd9vj1YW-56" value="IR" style="shape=table;startSize=20;container=1;collapsible=0;childLayout=tableLayout;fontStyle=1" vertex="1" parent="blg7EuB-wjPVDd9vj1YW-66">
          <mxGeometry x="11" y="228" width="140" height="80" as="geometry" />
        </mxCell>
        <mxCell id="blg7EuB-wjPVDd9vj1YW-57" value="" style="shape=tableRow;horizontal=0;startSize=0;swimlaneHead=0;swimlaneBody=0;strokeColor=inherit;top=0;left=0;bottom=0;right=0;collapsible=0;dropTarget=0;fillColor=none;points=[[0,0.5],[1,0.5]];portConstraint=eastwest;fontStyle=1" vertex="1" parent="blg7EuB-wjPVDd9vj1YW-56">
          <mxGeometry y="20" width="140" height="20" as="geometry" />
        </mxCell>
        <mxCell id="blg7EuB-wjPVDd9vj1YW-58" value="raíz+ &lt;span&gt;O&lt;/span&gt;" style="shape=partialRectangle;html=1;whiteSpace=wrap;connectable=0;strokeColor=inherit;overflow=hidden;fillColor=none;top=0;left=0;bottom=0;right=0;pointerEvents=1;fontStyle=1" vertex="1" parent="blg7EuB-wjPVDd9vj1YW-57">
          <mxGeometry width="60" height="20" as="geometry">
            <mxRectangle width="60" height="20" as="alternateBounds" />
          </mxGeometry>
        </mxCell>
        <mxCell id="blg7EuB-wjPVDd9vj1YW-59" value="raíz+ &lt;span&gt;IMOS&lt;/span&gt;" style="shape=partialRectangle;html=1;whiteSpace=wrap;connectable=0;strokeColor=inherit;overflow=hidden;fillColor=none;top=0;left=0;bottom=0;right=0;pointerEvents=1;fontStyle=1" vertex="1" parent="blg7EuB-wjPVDd9vj1YW-57">
          <mxGeometry x="60" width="80" height="20" as="geometry">
            <mxRectangle width="80" height="20" as="alternateBounds" />
          </mxGeometry>
        </mxCell>
        <mxCell id="blg7EuB-wjPVDd9vj1YW-60" value="" style="shape=tableRow;horizontal=0;startSize=0;swimlaneHead=0;swimlaneBody=0;strokeColor=inherit;top=0;left=0;bottom=0;right=0;collapsible=0;dropTarget=0;fillColor=none;points=[[0,0.5],[1,0.5]];portConstraint=eastwest;fontStyle=1" vertex="1" parent="blg7EuB-wjPVDd9vj1YW-56">
          <mxGeometry y="40" width="140" height="20" as="geometry" />
        </mxCell>
        <mxCell id="blg7EuB-wjPVDd9vj1YW-61" value="raíz+&lt;span&gt; ES&lt;/span&gt;" style="shape=partialRectangle;html=1;whiteSpace=wrap;connectable=0;strokeColor=inherit;overflow=hidden;fillColor=none;top=0;left=0;bottom=0;right=0;pointerEvents=1;fontStyle=1" vertex="1" parent="blg7EuB-wjPVDd9vj1YW-60">
          <mxGeometry width="60" height="20" as="geometry">
            <mxRectangle width="60" height="20" as="alternateBounds" />
          </mxGeometry>
        </mxCell>
        <mxCell id="blg7EuB-wjPVDd9vj1YW-62" value="raíz+ &lt;span&gt;IS&lt;/span&gt;" style="shape=partialRectangle;html=1;whiteSpace=wrap;connectable=0;strokeColor=inherit;overflow=hidden;fillColor=none;top=0;left=0;bottom=0;right=0;pointerEvents=1;fontStyle=1" vertex="1" parent="blg7EuB-wjPVDd9vj1YW-60">
          <mxGeometry x="60" width="80" height="20" as="geometry">
            <mxRectangle width="80" height="20" as="alternateBounds" />
          </mxGeometry>
        </mxCell>
        <mxCell id="blg7EuB-wjPVDd9vj1YW-63" value="" style="shape=tableRow;horizontal=0;startSize=0;swimlaneHead=0;swimlaneBody=0;strokeColor=inherit;top=0;left=0;bottom=0;right=0;collapsible=0;dropTarget=0;fillColor=none;points=[[0,0.5],[1,0.5]];portConstraint=eastwest;fontStyle=1" vertex="1" parent="blg7EuB-wjPVDd9vj1YW-56">
          <mxGeometry y="60" width="140" height="20" as="geometry" />
        </mxCell>
        <mxCell id="blg7EuB-wjPVDd9vj1YW-64" value="raíz+ &lt;span&gt;E&lt;/span&gt;" style="shape=partialRectangle;html=1;whiteSpace=wrap;connectable=0;strokeColor=inherit;overflow=hidden;fillColor=none;top=0;left=0;bottom=0;right=0;pointerEvents=1;fontStyle=1" vertex="1" parent="blg7EuB-wjPVDd9vj1YW-63">
          <mxGeometry width="60" height="20" as="geometry">
            <mxRectangle width="60" height="20" as="alternateBounds" />
          </mxGeometry>
        </mxCell>
        <mxCell id="blg7EuB-wjPVDd9vj1YW-65" value="raíz+ &lt;span&gt;EN&lt;/span&gt;" style="shape=partialRectangle;html=1;whiteSpace=wrap;connectable=0;strokeColor=inherit;overflow=hidden;fillColor=none;top=0;left=0;bottom=0;right=0;pointerEvents=1;fontStyle=1" vertex="1" parent="blg7EuB-wjPVDd9vj1YW-63">
          <mxGeometry x="60" width="80" height="20" as="geometry">
            <mxRectangle width="80" height="20" as="alternateBounds" />
          </mxGeometry>
        </mxCell>
        <mxCell id="blg7EuB-wjPVDd9vj1YW-717" value="" style="group;fontStyle=1" vertex="1" connectable="0" parent="blg7EuB-wjPVDd9vj1YW-753">
          <mxGeometry x="9" y="35" width="160" height="320" as="geometry" />
        </mxCell>
        <mxCell id="blg7EuB-wjPVDd9vj1YW-69" value="&lt;h1 style=&quot;font-size: 19px;&quot;&gt;Continue&lt;br&gt;&lt;span style=&quot;&quot;&gt;&lt;span style=&quot;font-weight: normal;&quot;&gt;(compuesto)&lt;br&gt;&lt;/span&gt;&lt;/span&gt;&lt;/h1&gt;&lt;div&gt;&lt;span style=&quot;font-weight: normal;&quot;&gt;для действий, которые совершаются прямо сейчас (в этот момент)&lt;/span&gt;&lt;/div&gt;&lt;div&gt;&lt;span style=&quot;font-weight: normal;&quot;&gt;&lt;br&gt;&lt;/span&gt;&lt;/div&gt;&lt;div&gt;&lt;span&gt;&lt;font style=&quot;font-size: 18px;&quot;&gt;Estar + Gerundio&lt;/font&gt;&lt;/span&gt;&lt;/div&gt;" style="text;html=1;strokeColor=#d79b00;fillColor=#ffe6cc;spacing=5;spacingTop=-20;whiteSpace=wrap;overflow=hidden;rounded=0;align=center;fontStyle=1" vertex="1" parent="blg7EuB-wjPVDd9vj1YW-717">
          <mxGeometry width="160" height="320" as="geometry" />
        </mxCell>
        <mxCell id="blg7EuB-wjPVDd9vj1YW-70" value="ESTAR" style="shape=table;startSize=20;container=1;collapsible=0;childLayout=tableLayout;fontStyle=1" vertex="1" parent="blg7EuB-wjPVDd9vj1YW-717">
          <mxGeometry x="8" y="160" width="140" height="80" as="geometry" />
        </mxCell>
        <mxCell id="blg7EuB-wjPVDd9vj1YW-71" value="" style="shape=tableRow;horizontal=0;startSize=0;swimlaneHead=0;swimlaneBody=0;strokeColor=inherit;top=0;left=0;bottom=0;right=0;collapsible=0;dropTarget=0;fillColor=none;points=[[0,0.5],[1,0.5]];portConstraint=eastwest;fontStyle=1" vertex="1" parent="blg7EuB-wjPVDd9vj1YW-70">
          <mxGeometry y="20" width="140" height="20" as="geometry" />
        </mxCell>
        <mxCell id="blg7EuB-wjPVDd9vj1YW-72" value="&lt;div&gt;&lt;span&gt;Estoy&lt;/span&gt;&lt;/div&gt;" style="shape=partialRectangle;html=1;whiteSpace=wrap;connectable=0;strokeColor=inherit;overflow=hidden;fillColor=none;top=0;left=0;bottom=0;right=0;pointerEvents=1;fontStyle=1" vertex="1" parent="blg7EuB-wjPVDd9vj1YW-71">
          <mxGeometry width="60" height="20" as="geometry">
            <mxRectangle width="60" height="20" as="alternateBounds" />
          </mxGeometry>
        </mxCell>
        <mxCell id="blg7EuB-wjPVDd9vj1YW-73" value="&lt;span&gt;Estamos&lt;/span&gt;" style="shape=partialRectangle;html=1;whiteSpace=wrap;connectable=0;strokeColor=inherit;overflow=hidden;fillColor=none;top=0;left=0;bottom=0;right=0;pointerEvents=1;fontStyle=1" vertex="1" parent="blg7EuB-wjPVDd9vj1YW-71">
          <mxGeometry x="60" width="80" height="20" as="geometry">
            <mxRectangle width="80" height="20" as="alternateBounds" />
          </mxGeometry>
        </mxCell>
        <mxCell id="blg7EuB-wjPVDd9vj1YW-74" value="" style="shape=tableRow;horizontal=0;startSize=0;swimlaneHead=0;swimlaneBody=0;strokeColor=inherit;top=0;left=0;bottom=0;right=0;collapsible=0;dropTarget=0;fillColor=none;points=[[0,0.5],[1,0.5]];portConstraint=eastwest;fontStyle=1" vertex="1" parent="blg7EuB-wjPVDd9vj1YW-70">
          <mxGeometry y="40" width="140" height="20" as="geometry" />
        </mxCell>
        <mxCell id="blg7EuB-wjPVDd9vj1YW-75" value="&lt;div&gt;&lt;span&gt;Estas&lt;/span&gt;&lt;/div&gt;" style="shape=partialRectangle;html=1;whiteSpace=wrap;connectable=0;strokeColor=inherit;overflow=hidden;fillColor=none;top=0;left=0;bottom=0;right=0;pointerEvents=1;fontStyle=1" vertex="1" parent="blg7EuB-wjPVDd9vj1YW-74">
          <mxGeometry width="60" height="20" as="geometry">
            <mxRectangle width="60" height="20" as="alternateBounds" />
          </mxGeometry>
        </mxCell>
        <mxCell id="blg7EuB-wjPVDd9vj1YW-76" value="&lt;span&gt;Estais&lt;/span&gt;" style="shape=partialRectangle;html=1;whiteSpace=wrap;connectable=0;strokeColor=inherit;overflow=hidden;fillColor=none;top=0;left=0;bottom=0;right=0;pointerEvents=1;fontStyle=1" vertex="1" parent="blg7EuB-wjPVDd9vj1YW-74">
          <mxGeometry x="60" width="80" height="20" as="geometry">
            <mxRectangle width="80" height="20" as="alternateBounds" />
          </mxGeometry>
        </mxCell>
        <mxCell id="blg7EuB-wjPVDd9vj1YW-77" value="" style="shape=tableRow;horizontal=0;startSize=0;swimlaneHead=0;swimlaneBody=0;strokeColor=inherit;top=0;left=0;bottom=0;right=0;collapsible=0;dropTarget=0;fillColor=none;points=[[0,0.5],[1,0.5]];portConstraint=eastwest;fontStyle=1" vertex="1" parent="blg7EuB-wjPVDd9vj1YW-70">
          <mxGeometry y="60" width="140" height="20" as="geometry" />
        </mxCell>
        <mxCell id="blg7EuB-wjPVDd9vj1YW-78" value="&lt;span&gt;Esta&lt;/span&gt;" style="shape=partialRectangle;html=1;whiteSpace=wrap;connectable=0;strokeColor=inherit;overflow=hidden;fillColor=none;top=0;left=0;bottom=0;right=0;pointerEvents=1;fontStyle=1" vertex="1" parent="blg7EuB-wjPVDd9vj1YW-77">
          <mxGeometry width="60" height="20" as="geometry">
            <mxRectangle width="60" height="20" as="alternateBounds" />
          </mxGeometry>
        </mxCell>
        <mxCell id="blg7EuB-wjPVDd9vj1YW-79" value="&lt;span&gt;Estan&lt;/span&gt;" style="shape=partialRectangle;html=1;whiteSpace=wrap;connectable=0;strokeColor=inherit;overflow=hidden;fillColor=none;top=0;left=0;bottom=0;right=0;pointerEvents=1;fontStyle=1" vertex="1" parent="blg7EuB-wjPVDd9vj1YW-77">
          <mxGeometry x="60" width="80" height="20" as="geometry">
            <mxRectangle width="80" height="20" as="alternateBounds" />
          </mxGeometry>
        </mxCell>
        <mxCell id="blg7EuB-wjPVDd9vj1YW-100" value="&lt;div&gt;&lt;i&gt;Estoy&lt;/i&gt; hablando&lt;/div&gt;&lt;div&gt;&lt;i&gt;Estamos &lt;/i&gt;hablando&lt;/div&gt;&lt;div&gt;&lt;i&gt;Estas&lt;/i&gt; comprando&lt;br&gt;&lt;/div&gt;" style="text;html=1;strokeColor=none;fillColor=none;align=left;verticalAlign=middle;whiteSpace=wrap;rounded=0;fontStyle=1" vertex="1" parent="blg7EuB-wjPVDd9vj1YW-717">
          <mxGeometry x="16" y="250" width="124" height="60" as="geometry" />
        </mxCell>
        <mxCell id="blg7EuB-wjPVDd9vj1YW-751" value="(составное)" style="text;html=1;align=center;verticalAlign=middle;resizable=0;points=[];autosize=1;strokeColor=none;fillColor=none;" vertex="1" parent="blg7EuB-wjPVDd9vj1YW-717">
          <mxGeometry x="33" y="37" width="90" height="30" as="geometry" />
        </mxCell>
        <mxCell id="blg7EuB-wjPVDd9vj1YW-755" value="неопределенная&lt;br&gt;форма" style="text;html=1;align=center;verticalAlign=middle;resizable=0;points=[];autosize=1;strokeColor=none;fillColor=none;fontColor=#878787;" vertex="1" parent="1">
          <mxGeometry x="34" y="543" width="120" height="40" as="geometry" />
        </mxCell>
        <mxCell id="blg7EuB-wjPVDd9vj1YW-756" value="отглагольное &lt;br&gt;существительное" style="text;html=1;align=center;verticalAlign=middle;resizable=0;points=[];autosize=1;strokeColor=none;fillColor=none;fontColor=#878787;" vertex="1" parent="1">
          <mxGeometry x="34" y="642" width="120" height="40" as="geometry" />
        </mxCell>
        <mxCell id="blg7EuB-wjPVDd9vj1YW-757" value="отглагольное &lt;br style=&quot;font-size: 11px;&quot;&gt;прилагательное" style="text;html=1;align=center;verticalAlign=middle;resizable=0;points=[];autosize=1;strokeColor=none;fillColor=none;fontColor=#878787;fontSize=11;" vertex="1" parent="1">
          <mxGeometry x="43" y="742" width="110" height="40" as="geometry" />
        </mxCell>
      </root>
    </mxGraphModel>
  </diagram>
</mxfile>
